<?xml version="1.0" encoding="utf-8"?>
<!-- Generator: Adobe Illustrator 17.0.0, SVG Export Plug-In . SVG Version: 6.00 Build 0)  -->
<!DOCTYPE svg PUBLIC "-//W3C//DTD SVG 1.1//EN" "http://www.w3.org/Graphics/SVG/1.1/DTD/svg11.dtd">
<svg version="1.1" id="Layer_1" xmlns="http://www.w3.org/2000/svg" xmlns:xlink="http://www.w3.org/1999/xlink" x="0px" y="0px"
	 width="841.89px" height="595.28px" viewBox="0 0 841.89 595.28" enable-background="new 0 0 841.89 595.28" xml:space="preserve">
<g>
	<g>
		<path fill="#D4C6E1" d="M365.83,358.32c-5.497-1.604-10.971-3.294-16.496-4.796c-19.845-5.395-37.502-14.862-53.496-27.772
			c-17.672-14.263-30.879-31.932-41.055-52.027c-9.229-18.225-15.776-37.476-17.507-57.788c-1.77-20.759,0.042-41.419,6.508-61.532
			c8.204-25.519,20.831-48.452,38.874-68.271c19.102-20.982,41.599-37.292,67.287-49.551c21.556-10.287,44.16-16.654,67.682-18.888
			c14.4-1.368,29.103-0.275,43.623,0.546c19.945,1.128,38.996,6.736,56.794,15.458c11.847,5.805,23.101,13.154,33.761,20.981
			c26.446,19.416,42.832,45.96,51.473,77.289c7.399,26.829,4.662,53.097-7.344,78.063c-8.747,18.19-23,31.579-40.718,41.039
			c-8.901,4.752-18.16,8.896-27.478,12.784c-11.597,4.839-19.221,13.964-26.688,23.368c-9.376,11.809-18.529,23.802-28.142,35.414
			c-2.798,3.381-6.757,5.842-10.333,8.524c-2.758,2.069-3.826,4.461-3.702,8.013c0.206,5.954-0.277,11.932-0.47,17.899
			c-0.141-0.233-0.292-0.459-0.451-0.679c-0.02-7.685-0.039-15.371-0.059-23.056c-0.48-13.605-0.86-27.215-1.467-40.814
			c-0.596-13.356-3.301-26.256-9.075-38.406c-0.539-1.428-1.08-2.858-1.621-4.288c-0.168-1.785-0.228-3.588-0.523-5.351
			c-1.357-8.104-3.936-16.2-3.916-24.293c0.032-13.024,1.422-26.083,2.892-39.052c1.098-9.69,3.227-19.262,4.896-28.887
			c0.398,0.062,0.797,0.124,1.195,0.186c-0.943,7.008-1.958,14.008-2.8,21.029c-0.467,3.894-1.976,8.329-0.715,11.645
			c4.474,11.763,9.643,23.296,15.21,34.59c1.649,3.345,5.477,5.615,8.306,8.378c-0.002,0-0.238,0.073-0.238,0.073
			c0.634,0.381,1.268,0.761,1.902,1.142c2.09-0.298,4.18-0.596,6.27-0.893c1.26-1.06,2.52-2.12,3.78-3.179
			c0.297-0.317,0.594-0.634,0.892-0.951c0.183-0.194,0.272-0.425,0.267-0.691c0.323-0.415,0.646-0.83,0.968-1.246
			c0.336-0.599,0.672-1.198,1.008-1.797c0.325-0.403,0.649-0.806,0.974-1.209c0.33-0.621,0.661-1.241,0.991-1.862
			c0.266-0.396,0.532-0.792,0.798-1.188c0.403-0.944,0.806-1.889,1.209-2.833c0.361-0.715,0.722-1.429,1.084-2.144
			c0.179-0.126,0.236-0.293,0.173-0.503c2.009-5.2,4.018-10.401,6.027-15.601c0.176-0.635,0.351-1.271,0.527-1.906
			c0.074-0.329,0.148-0.658,0.221-0.987c0.146-0.184,0.184-0.388,0.113-0.612c1.942-5.135,3.883-10.27,5.825-15.405
			c0.156-0.18,0.209-0.387,0.158-0.62c0.857-1.811,1.715-3.623,2.572-5.434c0.194-0.215,0.301-0.467,0.319-0.756
			c2.052-2.014,4.104-4.029,6.155-6.043c0.609-0.303,1.218-0.606,1.827-0.908c0.624-0.421,1.248-0.842,1.872-1.263l0.02-0.011
			c0.388-0.276,0.777-0.551,1.165-0.827l-0.031,0.05c0.6-0.413,1.199-0.827,1.799-1.24l0.037-0.03
			c0.696-0.633,1.392-1.266,2.088-1.898c0.331-0.228,0.661-0.455,0.992-0.683l0.379,0.04l0.021-0.385
			c0.625-0.836,1.251-1.671,1.876-2.507c3.039-2.019,5.082-4.577,4.594-8.502l0.07-0.073c0.625-0.651,1.25-1.302,1.875-1.953
			c0,0,0.078-0.102,0.078-0.102c0.739-0.582,1.478-1.164,2.216-1.747c0.683-1.009,1.366-2.018,2.24-3.31
			c-1.959-1.419-3.72-2.695-5.481-3.97c-0.76,1.146-1.369,2.449-2.335,3.381c-0.597,0.576-1.737,0.589-2.634,0.855
			c-1.375-1.305-2.751-2.61-4.126-3.915c-5.129-0.129-7.77,3.742-10.92,6.793c-0.333,0.27-0.666,0.54-0.999,0.811
			c-0.36,0.359-0.719,0.718-1.079,1.078l0.033-0.07c-0.658,0.366-1.316,0.732-1.974,1.099l0.023-0.007
			c-0.348,0.346-0.696,0.691-1.044,1.037l0.043-0.063c-0.513,0.416-1.025,0.831-1.538,1.247c-0.469,0.612-0.938,1.223-1.407,1.835
			c-0.421,0.657-0.842,1.315-1.262,1.972c-0.256,0.321-0.511,0.643-0.767,0.964c-2.999,7.04-5.998,14.08-8.997,21.12l0.017-0.031
			c-0.945,1.696-1.89,3.392-2.835,5.088c-0.201,0.156-0.301,0.362-0.299,0.617c-0.554,0.797-1.108,1.595-1.662,2.392
			c-0.205,0.163-0.312,0.375-0.322,0.636c-0.569,0.785-1.138,1.57-1.707,2.356c-0.201,0.129-0.303,0.313-0.307,0.552
			c-0.459,0.521-0.918,1.041-1.377,1.562c-1.794,1.689-3.589,3.377-5.383,5.066c-0.304-0.07-0.61-0.08-0.918-0.03
			c-3.048-10.464-6.266-20.882-9.096-31.404c-2.835-10.539-4.967-21.275-8.015-31.747c-1.915-6.579-6.884-10.213-13.905-11.096
			c-5.728-0.721-11.392-1.952-17.085-2.956c1.706-2.233,3.74-4.287,5.064-6.727c7.415-13.662,9.609-28.104,6.54-43.44
			c-1.949-9.741-5.385-18.577-13.297-24.969c-7.804-6.305-16.24-9.048-26.779-7.053c-10.902,2.063-18.686,7.079-22.229,17.329
			c-2.846,8.232-7.258,15.222-12.836,21.693c-1.066,1.236-1.805,2.755-2.694,4.143c-6.2,9.977-7.006,24.09-1.974,32.062
			c-0.376-5.609-0.768-11.45-1.16-17.29c0.472-0.087,0.944-0.175,1.415-0.262c-0.596,10.458,2.058,19.735,9.273,27.357
			c-1.857,0.708-3.712,1.422-5.572,2.122c-5.144,1.935-10.074,4.645-11.174,10.339c-1.255,6.497-1.303,13.228-1.939,20.587
			c1.717-1.094,2.389-1.522,4.014-2.557c-1.051,2.75-1.765,4.395-2.313,6.094c-1.891,5.866-3.937,11.701-0.602,17.799
			c2.872,5.251,5.633,10.566,8.299,15.925c5.173,10.398,5.487,21.476,4.519,32.709c-3.34-26.888-6.32-36.681-13.825-43.412
			c1.375,14.867-1.932,28.444-6.531,41.868c-1.312,3.829-1.343,8.096-1.963,12.161c0.169,0.935,0.34,1.871,0.511,2.807
			c-0.011,0.438-0.022,0.875-0.034,1.313c-0.399,2.166-0.798,4.331-1.197,6.497c-0.095,1.325-0.19,2.65-0.286,3.975
			c-0.19,3.01-0.381,6.019-0.571,9.029c-0.091,0.691-0.181,1.382-0.272,2.073c-0.247,1.643-0.494,3.286-0.741,4.928
			c-0.165,1.994-0.33,3.989-0.495,5.983c-0.535,2.673-1.07,5.346-1.605,8.019c-0.124,0.662-0.248,1.324-0.371,1.987
			c-1.851,7.001-3.702,14.001-5.553,21.002c-0.136,0.659-0.272,1.317-0.409,1.976c-0.764,3.324-1.527,6.647-2.291,9.971
			c-0.135,0.219-0.174,0.454-0.116,0.705c-0.446,0.787-0.893,1.573-1.339,2.36c-0.134,0.651-0.267,1.302-0.401,1.953
			c-2.597,5.462-1.677,15.635,1.751,19.362c1.616,1.918,3.231,3.836,4.847,5.754c0.387,0.393,0.775,0.786,1.162,1.179
			c0.646,0.6,1.292,1.199,1.938,1.799c1.39,1.578,2.743,2.382,3.933-0.19c1.06-0.466,2.119-0.933,3.179-1.399
			c1.632-1.532,3.263-3.064,4.928-4.627c-1.242-1.715-2.16-2.982-3.077-4.248c0.503-0.16,1.005-0.32,1.508-0.479
			c-0.385-1.458-0.771-2.915-1.156-4.373c-0.973-0.961-1.946-1.923-2.919-2.884c-0.37-0.37-0.74-0.741-1.109-1.111
			c-0.281-0.306-0.562-0.611-0.844-0.917c-0.003-0.352-0.134-0.649-0.391-0.889c-0.146-1.642-0.292-3.284-0.437-4.926
			c0.638-2.716,1.277-5.432,1.915-8.148c0.108-0.645,0.217-1.289,0.325-1.934c0.017-0.331,0.035-0.661,0.052-0.992
			c-0.065-0.978-0.13-1.956-0.195-2.934c0.417-3.049,0.834-6.099,1.252-9.148c0.403-0.663,0.807-1.326,1.21-1.989
			c0.502-0.673,1.003-1.346,1.505-2.019c0.159-0.34,0.318-0.681,0.478-1.021c1.376-2.619,2.753-5.238,4.13-7.857l-0.019,0.047
			c1.157-2.383,2.315-4.767,3.472-7.15c0.169-0.618,0.337-1.236,0.506-1.854c0.947-1.136,1.894-2.272,2.842-3.407
			c0.973,18.18,1.571,36.391,3.05,54.53C361.91,334.477,364.153,346.375,365.83,358.32z"/>
		<path fill="#322753" d="M365.83,358.32c-1.677-11.944-3.92-23.842-4.899-35.843c-1.479-18.139-2.078-36.35-3.05-54.526
			c0.763-6.182,1.527-12.369,2.29-18.555c0,0,0.006-0.001,0.006-0.001c0.383-0.382,0.766-0.764,1.149-1.146
			c2.409,1.418,4.675,3.216,7.252,4.186c9.818,3.694,20.055,5.155,30.529,5.033c3.169,2.083,6.382,2.782,9.696,0.311
			c1.748-0.109,3.496-0.218,5.244-0.327c1.899,0.281,3.807,0.847,5.695,0.787c4.746-0.152,9.482-0.588,14.222-0.91
			c2.548,6.161,5.095,12.323,7.643,18.484c0.43-0.191,0.859-0.382,1.289-0.572c-2.29-5.976-4.58-11.952-6.87-17.928
			c3.727-4.416,7.727-5.544,11.322-3.194c5.776,12.153,8.481,25.053,9.077,38.408c0.607,13.599,0.987,27.209,1.467,40.814
			c-0.294,1.57-0.836,3.138-0.842,4.709c-0.061,14.085-0.027,28.171-0.021,42.257c0.319,3.256,0.258,6.606,1.033,9.749
			c1.752,7.1,3.465,14.278,6.149,21.045c0.99,2.497,4.663,3.931,7.112,5.85l-0.201,0.156c0,0,0.155-0.202,0.156-0.202
			c2.234,1.462,4.468,2.923,6.702,4.384c7.055,6.4,14.979,12.083,20.978,19.354c11.355,13.761,21.605,28.435,32.451,42.911
			c-1.388,1.835-2.66,3.515-3.926,5.191c-6.062,4.713-12.128,9.43-18.197,14.149c-1.716-0.501-3.931-0.483-5.068-1.582
			c-22.598-21.833-45.115-43.752-67.551-65.752c-9.302-9.121-16.208-19.597-18.286-32.877c-0.687-4.39-2.616-8.585-4.28-13.823
			c0,5.914-0.164,10.689,0.04,15.448c0.284,6.621,0.414,13.295,1.389,19.83c1.41,9.449,3.518,18.794,5.328,28.184
			c-0.263,3.66-0.527,7.32-0.79,10.98c-0.013,17.855-0.045,35.71,0.001,53.565c0.004,1.375,0.566,2.749,0.869,4.124
			c0.245,0.057,0.491,0.107,0.739,0.151c0.038,0.727,0.075,1.454,0.113,2.181c-5.794,0.987-11.556,2.353-17.392,2.846
			c-5.182,0.438-10.982,1.468-14.114-4.738c-3.174-26.377-5.939-52.812-9.672-79.11c-2.28-16.06-6.262-31.871-9.074-47.865
			c-1.954-11.11-3.208-22.342-4.816-33.514C366.592,360.042,366.135,359.192,365.83,358.32z M412.18,386.507
			c0.761-0.188,1.521-0.375,2.282-0.563c-5.411-25.226-10.822-50.452-16.233-75.679c-0.696,0.15-1.391,0.301-2.087,0.451
			C401.488,335.98,406.834,361.244,412.18,386.507z M444.191,280.707c0.252-0.093,0.504-0.186,0.756-0.279
			c-0.261-0.586-0.513-1.177-0.816-1.74c-0.013-0.025-0.499,0.205-0.765,0.316C443.641,279.572,443.916,280.139,444.191,280.707z
			 M396.387,305.998c-0.05,0.143-0.134,0.287-0.129,0.428c0.002,0.048,0.227,0.089,0.351,0.133c0.05-0.143,0.134-0.287,0.129-0.428
			C396.736,306.082,396.51,306.042,396.387,305.998z"/>
		<path fill="#322955" d="M524.028,574.088c-11.053,1.082-22.105,2.164-33.159,3.25c-0.001,0.003,0.256,0.004,0.256,0.004
			c-3.085,0.235-6.17,0.469-9.254,0.704c-6.634-0.191-13.269-0.422-19.906-0.501c-0.589-0.007-1.19,0.978-1.786,1.502
			c-1.406,0.04-2.812,0.081-4.218,0.121c-1.243-0.293-2.486-0.838-3.73-0.841c-20.482-0.052-40.964-0.051-61.446,0.002
			c-1.248,0.003-2.494,0.539-3.741,0.827c-29.059-1.115-58.158-1.96-86.58-8.995c-2.89-0.715-5.323-3.274-7.968-4.978
			c2.524-1.579,4.863-3.923,7.608-4.583c6.464-1.553,13.11-2.374,19.704-3.344c3.217-0.473,6.483-0.618,9.723-0.912
			c0.721-0.115,1.445-0.231,2.17-0.346c1.43-0.536,2.859-1.073,4.289-1.609c2.715,0.278,5.425,0.623,8.147,0.812
			c1.984,0.138,3.981,0.071,5.973,0.095c-2.918,7.6-1.679,10.767,5.843,13.218c8.787,2.863,17.707,3.502,26.962,1.789
			c11.703-2.166,23.533-3.695,35.347-5.188c6.893-0.871,8.748-2.534,8.684-9.331c-0.011-1.162-0.087-2.323-0.132-3.483
			c0.412,0.012,0.823,0.024,1.235,0.036c4.899,0.314,9.799,0.891,14.698,0.874c5.736-0.021,11.469-0.56,17.204-0.874
			c0.329-0.303,0.657-0.606,0.986-0.909c15.048,0.961,30.096,1.921,45.145,2.882c-0.73,2.828-2.787,6.297-1.818,8.305
			c0.972,2.013,4.933,3.46,7.638,3.551c4.006,0.136,8.061-1.143,12.095-1.819C524.007,567.593,524.017,570.841,524.028,574.088z"/>
		<path fill="#7767A3" d="M426.814,552.299c0.046,1.161,0.122,2.322,0.133,3.484c0.065,6.798-1.79,8.46-8.684,9.331
			c-11.814,1.493-23.644,3.023-35.347,5.188c-9.256,1.713-18.175,1.074-26.962-1.789c-7.522-2.451-8.761-5.618-5.844-13.217
			c1.915-0.293,3.846-0.513,5.743-0.897c3.227-0.653,6.432-1.409,9.647-2.121c2.532-0.49,5.064-0.98,7.595-1.47
			c0.171,0.447,0.342,0.894,0.514,1.34c1.077-1.232-2.696-5.979,2.688-4.097c0.695,0.635,1.388,1.275,2.082,1.912
			c0.48,0.346,0.959,0.696,1.438,1.046c-0.184-0.656-0.369-1.311-0.553-1.967c-0.624-0.728-1.248-1.455-1.872-2.183
			c1.401-5.134,3.751,0.039,6.014-0.647c-0.427-1.212-0.849-2.413-1.616-4.594c2.584,0.602,4.53,1.056,7.179,1.673
			c-1.059-1.516-1.749-2.505-2.785-3.989c2.233-1.416,4.554-2.888,6.874-4.359c1.978,1.147,3.971,2.271,5.934,3.444
			c7.715,4.61,17.434,3.111,21.402-3.317c2.034,5.249,4.07,10.499,6.106,15.748C426.604,551.312,426.709,551.805,426.814,552.299z
			 M357.885,561.105c-0.067,0.564-0.134,1.128-0.201,1.691c5.482,0.537,10.958,1.16,16.448,1.593
			c13.054,1.03,25.154-4.429,37.875-5.719c0.25-0.025,0.43-0.748,1.038-1.886c-5.604,0.261-11.18-0.72-15.746,0.993
			c-9.371,3.517-18.821,4.809-28.636,4.42C365.061,562.055,361.477,561.482,357.885,561.105z M390.33,545.919
			c0.214-0.22,0.428-0.44,0.643-0.66c-0.612-0.654-1.225-1.308-2.802-2.993c0.636,1.783,0.688,2.223,0.923,2.519
			C389.437,545.217,389.912,545.546,390.33,545.919z M384.345,547.467c-0.06,0.114-0.12,0.228-0.179,0.343
			c0.224,0.008,0.448,0.015,0.672,0.023c-0.052-0.118-0.077-0.269-0.166-0.343C384.606,547.433,384.457,547.478,384.345,547.467z"/>
		<path fill="#7767A3" d="M523.996,564.345c-4.034,0.676-8.089,1.955-12.095,1.819c-2.705-0.092-6.666-1.539-7.638-3.551
			c-0.969-2.008,1.087-5.477,1.817-8.305c3.613-5.127,6.923-10.709,14.609-9.778c0.026,0.003,0.126-0.595,0.191-0.912
			c-2.332-1.065-4.663-2.131-6.526-2.982c2.232-0.529,4.944-1.172,7.655-1.815c0.229-0.247,0.458-0.493,0.688-0.739
			c-0.185-0.263-0.37-0.525-0.555-0.788c-1.895,0.339-3.789,0.679-5.684,1.018l-0.291-0.006c-0.557-0.569-1.114-1.138-1.67-1.708
			c-0.486-0.91-0.973-1.82-1.627-3.044c4.125-0.239,7.702-0.445,11.279-0.652c0.043-0.704,0.087-1.409,0.13-2.113
			c-3.73-0.556-7.461-1.112-11.191-1.668c-0.453-2.582,0.653-3.705,3.238-3.543c2.706,0.17,5.416,0.276,8.124,0.41
			c0.07-0.57,0.14-1.139,0.21-1.709c-3.783-0.501-7.566-1.003-11.748-1.557c0.572-2.102,1.041-3.825,1.509-5.547
			c11.725-0.343,14.713-2.174,17.967-12.176c1.094-3.364,1.033-7.103,1.499-10.671c5.425-0.834,17.177,5.354,18.425,10.244
			c0.556,2.175,0.078,5.093-0.985,7.122c-4.933,9.412-7.545,19.433-9.593,29.797c-0.928,4.695-4.088,8.947-6.217,13.409
			c-0.539,1.13-1.011,2.293-1.513,3.441C530.668,560.342,527.332,562.343,523.996,564.345z M542.253,516.003
			c-0.584-0.258-1.168-0.515-1.752-0.773c-4.531,16.24-3.934,35.469-23.93,42.917c2.238-0.15,4.169-0.547,5.853-1.421
			c7.127-3.699,12.191-9.435,14.407-17.082C539.076,531.89,540.48,523.893,542.253,516.003z"/>
		<path fill="#ED9561" d="M533.887,494.327c-0.467,3.568-0.405,7.307-1.499,10.671c-3.254,10.002-6.242,11.833-17.968,12.177
			c-1.711-4.761-3.421-9.523-5.132-14.284c6.066-4.717,12.133-9.434,18.194-14.147C529.614,490.608,531.75,492.468,533.887,494.327z
			"/>
		<path fill="#EA9462" d="M420.396,535.071c-3.971,6.428-13.689,7.927-21.404,3.317c-1.963-1.173-3.956-2.297-5.934-3.444
			c0.545-2.511,1.089-5.022,1.628-7.534c7.948-0.301,15.9-0.601,23.853-0.901C419.158,529.363,419.777,532.217,420.396,535.071z"/>
		<path fill="#372B59" d="M523.996,564.345c3.336-2.002,6.672-4.003,10.008-6.005c6.372,0.721,12.512,2.03,18.228,7.239
			c-8.689,6.669-18.74,6.695-28.205,8.51C524.017,570.841,524.007,567.593,523.996,564.345z"/>
		<path fill="#3B364A" d="M471.323,416.95c-2.449-1.919-6.122-3.352-7.112-5.85c-2.684-6.767-4.397-13.945-6.149-21.045
			c-0.776-3.143-0.714-6.493-1.033-9.75c0.27-1.564,0.745-3.123,0.775-4.691c0.123-6.405,0.111-12.812,0.148-19.219
			c0.16,0.22,0.31,0.446,0.451,0.679c0.518,12.732,0.791,25.479,1.637,38.187C460.62,403.97,464.062,411.542,471.323,416.95z"/>
		<path fill="#130F24" d="M387.044,579.155c1.247-0.288,2.494-0.823,3.741-0.827c20.482-0.053,40.964-0.054,61.446-0.002
			c1.244,0.003,2.487,0.548,3.73,0.841C432.989,579.164,410.016,579.159,387.044,579.155z"/>
		<path fill="#3B364A" d="M365.5,552.278c-3.215,0.713-6.42,1.469-9.647,2.121c-1.898,0.384-3.828,0.604-5.743,0.897
			c-1.991-0.025-3.989,0.042-5.972-0.096c-2.721-0.189-5.431-0.534-8.147-0.812C345.827,553.685,355.663,552.981,365.5,552.278z"/>
		<path fill="#342235" d="M418.539,526.509c-7.953,0.3-15.905,0.599-23.853,0.901c-3.619-0.407-4.636-2.735-4.402-5.983
			c3.132,6.207,8.932,5.178,14.114,4.74c5.836-0.493,11.598-1.86,17.392-2.846C420.706,524.383,419.623,525.446,418.539,526.509z"/>
		<path fill="#342235" d="M460.18,579.047c0.595-0.524,1.196-1.509,1.786-1.502c6.637,0.079,13.271,0.311,19.906,0.501
			C474.64,578.38,467.41,578.713,460.18,579.047z"/>
		<path fill="#3B364A" d="M477.979,421.289c-2.234-1.461-4.468-2.923-6.702-4.384C473.511,418.366,475.745,419.827,477.979,421.289z
			"/>
		<path fill="#3B364A" d="M331.701,555.997c-0.725,0.115-1.449,0.231-2.17,0.346C330.257,556.228,330.979,556.112,331.701,555.997z"
			/>
		<polygon fill="#342235" points="491.124,577.342 490.868,577.338 490.996,577.529 		"/>
		<path fill="#FEFDFD" d="M399.107,257.467c-10.473,0.122-20.711-1.339-30.529-5.033c-2.578-0.97-4.843-2.768-7.255-4.186
			c-0.346-0.486-0.689-0.971-1.033-1.457c-0.03-0.404-0.06-0.808-0.09-1.211c0.248-1.096,0.497-2.192,0.745-3.288
			c0.345-1.454,0.548-2.96,1.062-4.352c1.443-3.912,0.533-6.521-3.862-7.139c-4.371-0.615-8.768-1.045-13.154-1.557
			c-0.908,0.162-1.816,0.323-2.724,0.485c0.618-4.066,0.65-8.334,1.961-12.163c4.599-13.424,7.906-27.001,6.531-41.868
			c7.504,6.731,10.484,16.524,13.825,43.412c0.968-11.233,0.654-22.311-4.519-32.709c-2.666-5.359-5.427-10.674-8.299-15.925
			c-3.335-6.098-1.288-11.933,0.602-17.799c0.548-1.699,1.262-3.344,2.313-6.094c-1.625,1.035-2.297,1.463-4.014,2.557
			c0.636-7.359,0.684-14.09,1.939-20.587c1.1-5.694,6.029-8.404,11.174-10.339c1.86-0.7,3.715-1.414,5.572-2.122
			c5.322-2.533,10.644-5.066,15.966-7.599c0,0,0.379,0.066,0.379,0.066l0.377-0.078c0.089,0.629,0.178,1.258,0.267,1.886
			c0.139,1.432,0.277,2.864,0.416,4.296c2.36,5.582,7.329,6.543,12.393,6.225c5.709-0.359,10.619-2.683,12.999-8.529
			c0.534-1.312,1.297-2.53,1.955-3.792c4.642,1.561,9.283,3.122,13.925,4.683c5.693,1.005,11.357,2.236,17.085,2.956
			c7.02,0.883,11.99,4.517,13.905,11.096c3.049,10.472,5.181,21.208,8.015,31.747c2.83,10.522,6.048,20.94,9.095,31.403
			c-0.011,0.289,0.033,0.571,0.131,0.844c-0.236,0.143-0.377,0.35-0.421,0.622c-0.346,0.396-0.693,0.793-1.039,1.189l-0.046-0.035
			c-0.713,0.945-1.426,1.889-2.139,2.834l-0.014,0.058c-0.298,0.35-0.597,0.7-0.895,1.05c0,0,0.028,0.013,0.028,0.013
			c-0.305,0.397-0.611,0.793-0.916,1.19c-6.822,9.832-6.232,19.798-0.542,29.857c-2.83-2.763-6.659-5.033-8.307-8.377
			c-5.567-11.294-10.735-22.827-15.21-34.59c-1.261-3.316,0.247-7.751,0.715-11.645c0.842-7.021,1.857-14.02,2.8-21.029
			c-0.398-0.062-0.797-0.124-1.195-0.186c-1.67,9.625-3.798,19.198-4.896,28.887c-1.47,12.97-2.86,26.028-2.892,39.052
			c-0.02,8.093,2.559,16.189,3.916,24.293c0.295,1.763,0.355,3.566,0.524,5.352c-9.826,5.595-20.745,6.649-31.683,7.62
			c-1.748,0.109-3.496,0.218-5.241,0.327C405.574,257.674,402.341,257.571,399.107,257.467z M354.702,144.536
			c0.025-0.135,0.05-0.269,0.075-0.404c-0.18,0.037-0.359,0.073-0.539,0.11c0.046,0.123,0.066,0.274,0.151,0.358
			C354.43,144.642,354.594,144.561,354.702,144.536z"/>
		<path fill="#231935" d="M428.029,113.25c-4.642-1.561-9.283-3.122-13.917-4.68c-0.352-0.326-0.711-0.655-1.071-0.986
			c0.406-3.019,1.435-5.514,4.529-6.89c1.107-0.492,1.839-1.868,2.691-2.883c7.049-8.402,9.243-18.456,9.605-29.035
			c0.268-7.809-3.503-13.043-10.837-15.827c-4.258-1.616-8.418-3.49-11.361-4.721c-6.679,6.724-13.021,13.108-19.257,19.385
			c-1.493-0.191-3.965-1.241-4.918-0.453c-1.381,1.142-2.464,3.714-2.238,5.494c0.406,3.196,1.881,6.255,2.909,9.372
			c-0.048,8.42-0.095,16.84-0.143,25.26c-3.656,2.156-7.184,4.602-11.04,6.307c-1.314,0.581-4.253-0.13-5.059-1.251
			c-2.076-2.885-3.974-6.172-4.867-9.581c-2.373-9.057-1.545-17.996,2.929-26.671c-1.558-0.694-2.871-1.279-4.184-1.864
			c0.89-1.388,1.628-2.907,2.694-4.143c5.578-6.471,9.99-13.461,12.836-21.693c3.543-10.25,11.327-15.266,22.229-17.329
			c10.54-1.994,18.975,0.748,26.779,7.053c7.912,6.392,11.348,15.228,13.297,24.969c3.069,15.336,0.875,29.778-6.54,43.44
			C431.769,108.963,429.735,111.017,428.029,113.25z"/>
		<path fill="#F4955A" d="M475.839,191.919c0.045-0.272,0.185-0.479,0.421-0.622c0.262-0.271,0.525-0.543,0.788-0.814
			c1.794-1.689,3.589-3.377,5.381-5.066c0.459-0.521,0.919-1.041,1.379-1.561c0.004-0.239,0.106-0.423,0.306-0.552
			c0.569-0.785,1.138-1.57,1.707-2.355c0.01-0.261,0.117-0.473,0.321-0.636c0.554-0.797,1.108-1.595,1.663-2.392
			c-0.001-0.255,0.098-0.46,0.299-0.617c0.945-1.696,1.89-3.392,2.835-5.088c0,0-0.017,0.031-0.017,0.031
			c2.999-7.04,5.998-14.08,8.997-21.12c0.256-0.321,0.511-0.643,0.768-0.964c0.421-0.657,0.841-1.315,1.261-1.973
			c0.469-0.612,0.938-1.223,1.405-1.835c0.512-0.416,1.026-0.831,1.539-1.247c0,0-0.043,0.063-0.042,0.064
			c0.348-0.345,0.696-0.691,1.043-1.037c0,0-0.023,0.007-0.022,0.008c0.658-0.366,1.316-0.733,1.973-1.099
			c0,0-0.033,0.07-0.032,0.071c0.36-0.359,0.719-0.719,1.078-1.078c0.333-0.27,0.666-0.54,0.999-0.81
			c1.232-0.406,2.487-1.173,3.687-1.095c0.827,0.054,1.578,1.279,2.363,1.98l-0.137,0.093c-0.915,0.612-1.83,1.224-2.745,1.836
			c0.279,0.498,0.558,0.996,0.837,1.495c1.368-0.67,2.736-1.341,4.104-2.011c0.646-0.094,1.292-0.189,1.938-0.283
			c0.971-0.689,1.942-1.377,2.913-2.066l-0.011-0.075c5.466,1.471,7.165-0.21,7.066-6.989c1.761,1.276,3.523,2.552,5.481,3.97
			c-0.875,1.292-1.557,2.301-2.24,3.31c-0.739,0.582-1.477,1.165-2.216,1.747c0,0-0.078,0.102-0.077,0.102
			c-0.625,0.651-1.25,1.302-1.875,1.953c0,0-0.07,0.073-0.069,0.073c-2.378,2.376-5.714,4.235-4.594,8.503
			c-0.625,0.836-1.251,1.671-1.873,2.506c-0.158,0.084-0.294,0.199-0.404,0.345c-0.331,0.228-0.661,0.455-0.992,0.683
			c-0.696,0.633-1.392,1.266-2.087,1.898c0,0-0.037,0.03-0.037,0.03c-0.6,0.413-1.2,0.827-1.8,1.24c0,0,0.031-0.05,0.03-0.051
			c-0.389,0.275-0.777,0.552-1.164,0.828c0,0-0.02,0.011-0.019,0.011c-0.624,0.421-1.248,0.842-1.872,1.263
			c-0.609,0.303-1.218,0.606-1.828,0.908c-3.539,0.501-6.419,1.672-6.154,6.044c-0.018,0.289-0.124,0.541-0.318,0.756
			c-0.857,1.811-1.715,3.623-2.573,5.434c0.051,0.233-0.002,0.44-0.158,0.62c-1.942,5.135-3.883,10.27-5.825,15.405
			c0.071,0.224,0.033,0.428-0.114,0.612c-0.074,0.329-0.147,0.658-0.221,0.987c-0.176,0.635-0.351,1.271-0.525,1.906
			c-2.008,5.2-4.019,10.401-6.03,15.601c0.064,0.209,0.006,0.377-0.174,0.503c-0.362,0.715-0.722,1.429-1.082,2.144
			c-0.403,0.944-0.806,1.889-1.209,2.833c-0.266,0.396-0.532,0.792-0.798,1.188c-0.33,0.621-0.661,1.241-0.992,1.862
			c-0.325,0.403-0.649,0.806-0.973,1.209c-0.336,0.599-0.672,1.198-1.008,1.797c-0.323,0.415-0.645,0.831-0.968,1.246
			c0.005,0.267-0.084,0.497-0.267,0.691c-0.297,0.317-0.595,0.634-0.892,0.951c-1.26,1.06-2.52,2.12-3.781,3.179
			c-2.143-0.002-4.284-0.003-6.426-0.004c-0.582-0.081-1.163-0.163-1.745-0.244c0,0,0.237-0.073,0.238-0.073
			c-5.689-10.059-6.279-20.025,0.543-29.857c0.306-0.397,0.611-0.793,0.916-1.19c0,0-0.028-0.013-0.026-0.012
			c0.299-0.35,0.596-0.7,0.893-1.051c0,0,0.014-0.058,0.017-0.056c0.714-0.944,1.425-1.89,2.137-2.836c0,0,0.046,0.035,0.047,0.036
			C475.148,192.713,475.493,192.316,475.839,191.919z"/>
		<path fill="#F3965D" d="M344.993,229.243c4.386,0.511,8.783,0.942,13.154,1.557c4.395,0.618,5.305,3.228,3.862,7.139
			c-0.514,1.392-0.717,2.898-1.062,4.352c-0.248,1.096-0.497,2.192-0.745,3.289c0.03,0.404,0.06,0.808,0.089,1.213
			c-0.038,0.868-0.076,1.735-0.113,2.602c0,0-0.006,0.001-0.007,0c-1.711,7.319-3.421,14.639-5.131,21.959
			c-0.169,0.618-0.337,1.236-0.504,1.854c-1.157,2.383-2.315,4.767-3.473,7.15c0,0,0.019-0.047,0.018-0.047
			c-1.377,2.619-2.753,5.238-4.129,7.857c-0.159,0.34-0.318,0.681-0.476,1.021c-0.501,0.673-1.004,1.346-1.507,2.019
			c-0.403,0.663-0.807,1.326-1.21,1.989c-3.622,2.611-3.933,5.675-1.252,9.148c0.065,0.978,0.13,1.956,0.196,2.934
			c-0.099,0.095-0.291,0.203-0.28,0.283c0.033,0.242,0.146,0.473,0.227,0.709c-0.108,0.645-0.217,1.289-0.323,1.934
			c-0.638,2.716-1.277,5.432-1.917,8.149c0.146,1.642,0.292,3.284,0.438,4.926c0.131,0.296,0.261,0.593,0.391,0.889
			c0.281,0.306,0.562,0.611,0.844,0.918c0.37,0.371,0.74,0.74,1.109,1.11c0.973,0.961,1.946,1.923,2.919,2.885
			c-2.942,4.938-4.268-2.412-6.972-0.633c-0.652,4.937,3.712,6.459,6.867,8.756c-0.759,2.027-1.429,3.816-2.098,5.604
			c-1.06,0.466-2.119,0.933-3.178,1.399c-1.311,0.063-2.622,0.126-3.934,0.19c-0.646-0.6-1.292-1.199-1.938-1.8
			c-0.387-0.394-0.775-0.786-1.162-1.178c-1.616-1.918-3.231-3.836-4.847-5.756c-0.584-6.455-1.168-12.907-1.751-19.36
			c0.134-0.651,0.267-1.302,0.4-1.953c0.446-0.787,0.893-1.573,1.34-2.36c-0.058-0.251-0.019-0.486,0.116-0.705
			c0.764-3.324,1.527-6.647,2.291-9.971c0.136-0.659,0.272-1.317,0.406-1.976c1.85-7,3.703-14.001,5.556-21.002
			c0.124-0.662,0.248-1.324,0.369-1.987c0.534-2.673,1.071-5.346,1.607-8.019c0.165-1.994,0.33-3.989,0.493-5.983
			c0.246-1.643,0.495-3.286,0.743-4.928c0.091-0.691,0.181-1.382,0.27-2.072c0.19-3.009,0.382-6.019,0.574-9.029
			c0.095-1.325,0.19-2.65,0.284-3.975c0.398-2.165,0.798-4.331,1.198-6.497c0.011-0.438,0.022-0.875,0.035-1.314
			C343.518,231.436,344.255,230.339,344.993,229.243z"/>
		<path fill="#262131" d="M361.798,74.225c1.313,0.585,2.626,1.17,4.184,1.864c-4.473,8.675-5.302,17.614-2.929,26.671
			c0.893,3.408,2.791,6.696,4.867,9.581c0.806,1.121,3.745,1.831,5.059,1.251c3.856-1.704,7.384-4.151,11.04-6.307
			c0.433,0.402,0.866,0.805,1.299,1.207c-5.322,2.533-10.644,5.066-15.966,7.599c-7.214-7.622-9.869-16.899-9.273-27.357
			c-0.472,0.087-0.944,0.175-1.415,0.262c0.392,5.84,0.783,11.681,1.16,17.29C354.792,98.315,355.598,84.202,361.798,74.225z"/>
		<path fill="#231935" d="M414.047,257.451c10.939-0.971,21.857-2.025,31.683-7.62c0.54,1.429,1.081,2.859,1.62,4.287
			c-3.597-2.351-7.597-1.223-11.324,3.192c-0.687,0.005-1.375,0.011-2.062,0.017c-4.74,0.322-9.476,0.758-14.222,0.91
			C417.854,258.299,415.946,257.732,414.047,257.451z"/>
		<path fill="#EA9A73" d="M343.907,340.809c0.67-1.789,1.339-3.577,2.098-5.604c-3.156-2.297-7.52-3.819-6.867-8.756
			c2.704-1.779,4.03,5.572,6.972,0.633c0.386,1.457,0.771,2.915,1.156,4.372c-0.503,0.16-1.005,0.32-1.508,0.479
			c0.917,1.266,1.834,2.533,3.077,4.248C347.17,337.745,345.538,339.277,343.907,340.809z"/>
		<path fill="#130F24" d="M457.951,356.395c-0.037,6.407-0.025,12.814-0.148,19.219c-0.03,1.568-0.505,3.127-0.775,4.691
			c-0.006-14.085-0.039-28.171,0.022-42.257c0.007-1.571,0.549-3.14,0.842-4.709C457.912,341.024,457.931,348.71,457.951,356.395z"
			/>
		<path fill="#EB9A70" d="M515.94,142.111c-0.785-0.702-1.535-1.926-2.363-1.98c-1.2-0.079-2.455,0.689-3.687,1.095
			c3.15-3.052,5.791-6.922,10.92-6.794C521.755,138.619,518.612,140.215,515.94,142.111z"/>
		<path fill="#EB9A70" d="M499.919,151.126c-2.999,7.04-5.998,14.08-8.997,21.12C493.921,165.206,496.92,158.166,499.919,151.126z"
			/>
		<path fill="#EA9A73" d="M337.205,276.337c-1.853,7.001-3.705,14.002-5.556,21.002
			C333.503,290.338,335.354,283.338,337.205,276.337z"/>
		<path fill="#EA9A73" d="M355.039,271.353c1.71-7.32,3.42-14.64,5.131-21.959c-0.763,6.187-1.526,12.374-2.289,18.556
			C356.934,269.082,355.987,270.218,355.039,271.353z"/>
		<path fill="#EA9A73" d="M327.096,314.304c0.584,6.453,1.168,12.906,1.751,19.36C325.42,329.939,324.5,319.766,327.096,314.304z"/>
		<path fill="#E9B8B8" d="M515.94,142.111c2.672-1.896,5.815-3.492,4.871-7.68c1.375,1.306,2.75,2.611,4.126,3.916
			c-0.699,0.917-1.399,1.835-2.098,2.753c0,0,0.011,0.075,0.012,0.076c-0.971,0.689-1.943,1.377-2.914,2.065
			c-0.646,0.094-1.292,0.189-1.938,0.282c-0.732-0.44-1.464-0.879-2.196-1.318L515.94,142.111z"/>
		<path fill="#EB9A70" d="M522.838,141.099c0.7-0.918,1.399-1.835,2.098-2.753c0.896-0.266,2.036-0.279,2.633-0.855
			c0.966-0.933,1.575-2.235,2.335-3.381C530.003,140.889,528.304,142.57,522.838,141.099z"/>
		<path fill="#EA9A73" d="M497.24,191.687c1.941-5.135,3.883-10.27,5.825-15.405C501.123,181.417,499.181,186.552,497.24,191.687z"
			/>
		<path fill="#EA9A73" d="M490.351,210.794c2.011-5.2,4.021-10.401,6.03-15.601C494.369,200.394,492.36,205.594,490.351,210.794z"/>
		<path fill="#EA9A73" d="M524.313,153.768c-1.12-4.267,2.216-6.126,4.594-8.503C529.396,149.191,527.353,151.748,524.313,153.768z"
			/>
		<path fill="#EA9A73" d="M342.506,302.346c-2.68-3.474-2.37-6.538,1.252-9.148C343.341,296.247,342.923,299.296,342.506,302.346z"
			/>
		<path fill="#EA9A73" d="M331.243,299.315c-0.763,3.324-1.527,6.647-2.291,9.971C329.716,305.963,330.48,302.639,331.243,299.315z"
			/>
		<path fill="#EA9A73" d="M341.262,244.319c-0.192,3.01-0.384,6.019-0.574,9.029C340.881,250.338,341.071,247.328,341.262,244.319z"
			/>
		<path fill="#EA9A73" d="M339.182,266.331c-0.536,2.673-1.073,5.346-1.607,8.019C338.112,271.677,338.647,269.004,339.182,266.331z
			"/>
		<path fill="#EA9A73" d="M506.113,169.472c-0.265-4.372,2.615-5.543,6.154-6.044C510.217,165.443,508.165,167.458,506.113,169.472z
			"/>
		<path fill="#EA9A73" d="M340.409,316.354c0.64-2.716,1.28-5.432,1.917-8.149C341.686,310.922,341.048,313.638,340.409,316.354z"/>
		<path fill="#EA9A73" d="M351.062,280.358c1.158-2.383,2.316-4.767,3.473-7.15C353.376,275.591,352.219,277.974,351.062,280.358z"
			/>
		<path fill="#EA9A73" d="M346.951,288.168c1.376-2.619,2.753-5.238,4.129-7.857C349.704,282.93,348.327,285.549,346.951,288.168z"
			/>
		<path fill="#EA9A73" d="M342.744,233.847c-0.4,2.166-0.8,4.331-1.198,6.497C341.946,238.178,342.345,236.012,342.744,233.847z"/>
		<path fill="#EA9A73" d="M471.781,228.392c2.142,0.001,4.284,0.002,6.426,0.004c-2.089,0.298-4.179,0.596-6.268,0.894
			C471.882,228.991,471.829,228.692,471.781,228.392z"/>
		<path fill="#EA9A73" d="M340.418,255.42c-0.249,1.643-0.497,3.286-0.743,4.928C339.924,258.706,340.171,257.063,340.418,255.42z"
			/>
		<path fill="#EA9A73" d="M503.222,175.663c0.858-1.811,1.716-3.623,2.573-5.434C504.937,172.04,504.08,173.851,503.222,175.663z"/>
		<path fill="#EB9A70" d="M490.939,172.215c-0.945,1.696-1.89,3.392-2.835,5.088C489.049,175.607,489.994,173.911,490.939,172.215z"
			/>
		<path fill="#EA9A73" d="M344.993,229.243c-0.738,1.096-1.475,2.192-2.214,3.289c-0.172-0.935-0.343-1.871-0.513-2.806
			C343.176,229.567,344.085,229.405,344.993,229.243z"/>
		<path fill="#EA9A73" d="M336.794,342.398c1.311-0.063,2.623-0.126,3.934-0.19C339.538,344.78,338.185,343.976,336.794,342.398z"/>
		<path fill="#EA9A73" d="M530.93,143.137c0.739-0.582,1.477-1.165,2.216-1.747C532.407,141.973,531.669,142.555,530.93,143.137z"/>
		<path fill="#EB9A70" d="M485.821,180.948c-0.569,0.785-1.138,1.57-1.707,2.355C484.684,182.518,485.252,181.733,485.821,180.948z"
			/>
		<path fill="#EA9A73" d="M328.837,309.992c-0.447,0.787-0.894,1.573-1.34,2.36C327.944,311.565,328.39,310.778,328.837,309.992z"/>
		<path fill="#EB9A70" d="M487.805,177.92c-0.554,0.797-1.109,1.595-1.663,2.392C486.697,179.514,487.251,178.717,487.805,177.92z"
			/>
		<path fill="#EA9A73" d="M518.957,159.2c0.696-0.633,1.392-1.266,2.087-1.898C520.349,157.934,519.653,158.567,518.957,159.2z"/>
		<path fill="#EA9A73" d="M344.968,291.208c0.503-0.673,1.006-1.346,1.507-2.019C345.971,289.862,345.47,290.535,344.968,291.208z"
			/>
		<path fill="#EA9A73" d="M528.977,145.192c0.625-0.651,1.251-1.302,1.875-1.953C530.227,143.89,529.602,144.541,528.977,145.192z"
			/>
		<path fill="#EA9A73" d="M489.095,213.441c0.36-0.715,0.721-1.429,1.082-2.144C489.817,212.011,489.456,212.726,489.095,213.441z"
			/>
		<path fill="#EB9A70" d="M483.808,183.855c-0.46,0.52-0.92,1.041-1.379,1.561C482.89,184.897,483.349,184.376,483.808,183.855z"/>
		<path fill="#EB9A70" d="M504.893,145.108c-0.514,0.416-1.027,0.831-1.539,1.247C503.868,145.939,504.381,145.524,504.893,145.108z
			"/>
		<path fill="#EB9A70" d="M501.949,148.19c-0.42,0.658-0.84,1.315-1.261,1.973C501.107,149.505,501.528,148.847,501.949,148.19z"/>
		<path fill="#EB9A70" d="M507.846,143.043c-0.657,0.367-1.315,0.733-1.973,1.099C506.53,143.776,507.188,143.409,507.846,143.043z"
			/>
		<path fill="#FEFDFD" d="M471.781,228.392c0.049,0.3,0.101,0.599,0.158,0.898c-0.634-0.38-1.268-0.761-1.902-1.142
			C470.617,228.229,471.199,228.31,471.781,228.392z"/>
		<path fill="#EA9A73" d="M514.095,162.52c0.624-0.421,1.248-0.842,1.872-1.263C515.343,161.678,514.719,162.099,514.095,162.52z"/>
		<path fill="#EA9A73" d="M517.121,160.47c0.6-0.413,1.2-0.826,1.8-1.24C518.321,159.643,517.721,160.056,517.121,160.47z"/>
		<path fill="#EA9A73" d="M481.988,225.217c0.298-0.317,0.595-0.634,0.892-0.951C482.582,224.583,482.285,224.9,481.988,225.217z"/>
		<path fill="#EA9A73" d="M341.238,322.169c-0.13-0.297-0.26-0.593-0.391-0.889C341.104,321.521,341.234,321.817,341.238,322.169z"
			/>
		<path fill="#EA9A73" d="M487.088,217.461c0.266-0.396,0.533-0.792,0.798-1.188C487.619,216.67,487.354,217.065,487.088,217.461z"
			/>
		<path fill="#EA9A73" d="M333.695,339.42c0.388,0.392,0.775,0.784,1.162,1.178C334.469,340.206,334.082,339.813,333.695,339.42z"/>
		<path fill="#EB9A70" d="M508.891,142.036c-0.359,0.36-0.718,0.719-1.078,1.078C508.172,142.754,508.532,142.395,508.891,142.036z"
			/>
		<path fill="#EB9A70" d="M505.895,144.135c-0.347,0.346-0.695,0.692-1.043,1.037C505.199,144.826,505.547,144.48,505.895,144.135z"
			/>
		<path fill="#EA9A73" d="M485.123,220.532c0.324-0.403,0.649-0.806,0.973-1.209C485.772,219.726,485.447,220.129,485.123,220.532z"
			/>
		<path fill="#EA9A73" d="M483.147,223.575c0.323-0.415,0.645-0.831,0.968-1.246C483.792,222.744,483.47,223.16,483.147,223.575z"/>
		<path fill="#EA9A73" d="M343.191,324.197c-0.37-0.37-0.74-0.74-1.109-1.11C342.451,323.457,342.821,323.827,343.191,324.197z"/>
		<path fill="#EA9A73" d="M342.649,306.271c-0.082-0.235-0.194-0.467-0.227-0.709c-0.011-0.08,0.181-0.188,0.28-0.283
			C342.684,305.61,342.667,305.941,342.649,306.271z"/>
		<path fill="#EA9A73" d="M496.905,193.287c0.073-0.329,0.147-0.658,0.221-0.987C497.053,192.629,496.979,192.958,496.905,193.287z"
			/>
		<path fill="#EA9A73" d="M515.987,161.247c0.388-0.276,0.776-0.552,1.164-0.828C516.764,160.695,516.375,160.971,515.987,161.247z"
			/>
		<path fill="#EA9A73" d="M522.037,156.619c0.11-0.146,0.246-0.261,0.404-0.345c-0.004,0-0.025,0.385-0.025,0.385L522.037,156.619z"
			/>
		<path fill="#EB9A70" d="M477.048,190.483c-0.263,0.271-0.526,0.542-0.788,0.814c-0.097-0.273-0.141-0.555-0.13-0.844
			C476.438,190.404,476.744,190.413,477.048,190.483z"/>
		<path fill="#FBFAFC" d="M418.539,526.509c1.084-1.063,2.167-2.126,3.251-3.189c-0.038-0.727-0.075-1.454-0.113-2.179
			c-0.273-22.939-0.546-45.88-0.819-68.821c-1.81-9.389-3.918-18.734-5.328-28.184c-0.975-6.535-1.105-13.209-1.389-19.83
			c-0.204-4.759-0.04-9.534-0.04-15.448c1.664,5.238,3.593,9.433,4.28,13.823c2.078,13.281,8.984,23.756,18.286,32.877
			c22.436,22,44.952,43.919,67.551,65.752c1.137,1.099,3.353,1.081,5.068,1.582c1.712,4.76,3.422,9.522,5.134,14.283
			c-0.468,1.721-0.936,3.444-1.508,5.546c4.182,0.554,7.965,1.055,11.748,1.557c-0.07,0.57-0.14,1.139-0.21,1.709
			c-2.708-0.134-5.418-0.24-8.124-0.41c-2.586-0.162-3.691,0.961-3.238,3.543c-0.365,1.695-1.057,3.41-0.957,5.077
			c0.051,0.845,1.532,1.603,2.367,2.401c0.557,0.569,1.114,1.138,1.658,1.707c-3.155-0.253-5.127,0.657-4.435,3.994
			c3.182,0.458,6.172,0.889,9.162,1.32c-0.065,0.317-0.164,0.915-0.191,0.912c-7.686-0.932-10.995,4.651-14.609,9.778
			c-15.047-0.96-30.096-1.921-45.143-2.882c-4.401-0.112-8.802-0.224-13.203-0.337c-6.636-0.102-13.273-0.204-19.909-0.306
			c-0.442,0.012-0.883,0.023-1.325,0.035c-2.036-5.249-4.072-10.499-6.106-15.748C419.777,532.217,419.158,529.363,418.539,526.509z
			"/>
		<path fill="#241942" d="M412.18,386.507c-5.346-25.263-10.692-50.527-16.038-75.79c0.696-0.15,1.391-0.301,2.087-0.451
			c5.411,25.226,10.822,50.452,16.233,75.679C413.702,386.132,412.941,386.32,412.18,386.507z"/>
		<path fill="#342235" d="M420.858,452.32c0.273,22.941,0.546,45.881,0.819,68.821c-0.248-0.045-0.494-0.095-0.738-0.149
			c0.012-17.652,0.047-35.307-0.004-52.962c-0.005-1.577-0.565-3.153-0.867-4.73C420.332,459.64,420.595,455.98,420.858,452.32z"/>
		<path fill="#191034" d="M420.068,463.3c0.302,1.577,0.863,3.152,0.867,4.73c0.051,17.655,0.016,35.31,0.004,52.962
			c-0.303-1.378-0.866-2.752-0.87-4.127C420.023,499.01,420.056,481.155,420.068,463.3z"/>
		<path fill="#241942" d="M433.964,257.327c0.687-0.006,1.374-0.011,2.062-0.017c2.29,5.976,4.58,11.953,6.87,17.929
			c-0.43,0.191-0.859,0.382-1.289,0.572C439.059,269.65,436.511,263.489,433.964,257.327z"/>
		<path fill="#231935" d="M399.107,257.467c3.234,0.104,6.467,0.207,9.698,0.311C405.489,260.249,402.276,259.55,399.107,257.467z"
			/>
		<path fill="#241942" d="M444.191,280.707c-0.275-0.568-0.55-1.135-0.825-1.703c0.266-0.111,0.751-0.341,0.765-0.316
			c0.303,0.563,0.555,1.154,0.816,1.74C444.695,280.521,444.443,280.614,444.191,280.707z"/>
		<path fill="#EA9A73" d="M360.177,249.395c0.037-0.867,0.075-1.734,0.113-2.602c0.345,0.484,0.688,0.969,1.034,1.455
			C360.943,248.631,360.56,249.013,360.177,249.395z"/>
		<path fill="#241942" d="M396.387,305.998c0.123,0.044,0.349,0.085,0.351,0.133c0.005,0.141-0.08,0.285-0.129,0.428
			c-0.123-0.044-0.349-0.085-0.351-0.133C396.253,306.285,396.337,306.141,396.387,305.998z"/>
		<path fill="#130F24" d="M426.499,550.818c0.442-0.012,0.883-0.023,1.325-0.035c6.637,0.102,13.273,0.204,19.909,0.306
			c4.401,0.112,8.802,0.224,13.203,0.337c-0.329,0.303-0.658,0.606-0.986,0.909c-10.634,0-21.268,0-31.902,0
			c-0.411-0.012-0.822-0.023-1.235-0.036C426.709,551.805,426.604,551.312,426.499,550.818z"/>
		<path fill="#383062" d="M428.049,552.335c10.634,0,21.268,0,31.902,0c-5.735,0.315-11.469,0.854-17.204,0.874
			C437.849,553.227,432.948,552.649,428.049,552.335z"/>
		<path fill="#E4D9EA" d="M357.885,561.105c3.592,0.377,7.177,0.95,10.778,1.093c9.815,0.39,19.265-0.903,28.636-4.42
			c4.566-1.713,10.142-0.732,15.746-0.993c-0.608,1.137-0.787,1.86-1.038,1.886c-12.721,1.29-24.821,6.749-37.875,5.719
			c-5.49-0.433-10.966-1.056-16.448-1.593C357.75,562.233,357.818,561.669,357.885,561.105z"/>
		<path fill="#FFFFFF" d="M377.392,546.859c0.624,0.728,1.248,1.455,1.872,2.183c-0.295,0.308-0.591,0.617-0.886,0.925
			c-0.693-0.64-1.386-1.28-2.081-1.915C376.66,547.657,377.026,547.258,377.392,546.859z"/>
		<path fill="#FFFFFF" d="M390.33,545.919c-0.419-0.373-0.893-0.702-1.236-1.134c-0.235-0.296-0.287-0.736-0.923-2.519
			c1.577,1.685,2.19,2.339,2.802,2.993C390.759,545.479,390.545,545.699,390.33,545.919z"/>
		<path fill="#FFFFFF" d="M379.264,549.042c0.184,0.656,0.369,1.311,0.553,1.967c-0.479-0.35-0.958-0.7-1.438-1.046
			C378.673,549.659,378.968,549.35,379.264,549.042z"/>
		<path fill="#FFFFFF" d="M384.345,547.472c0.112,0.005,0.261-0.039,0.327,0.016c0.089,0.074,0.113,0.225,0.166,0.343
			c-0.224-0.008-0.448-0.015-0.672-0.023C384.226,547.695,384.285,547.581,384.345,547.472z"/>
		<path fill="#E4D9EA" d="M542.253,516.003c-1.773,7.89-3.177,15.887-5.423,23.64c-2.215,7.647-7.28,13.383-14.407,17.082
			c-1.684,0.874-3.615,1.271-5.853,1.421c19.996-7.448,19.399-26.677,23.93-42.917C541.084,515.487,541.669,515.745,542.253,516.003
			z"/>
		<path fill="#E4D9EA" d="M514.496,536.597c-0.835-0.797-2.316-1.556-2.367-2.401c-0.1-1.667,0.592-3.382,0.957-5.077
			c3.73,0.556,7.461,1.112,11.191,1.668c-0.043,0.704-0.087,1.409-0.13,2.113c-3.577,0.207-7.154,0.414-11.279,0.652
			C513.523,534.778,514.01,535.688,514.496,536.597z"/>
		<path fill="#736899" d="M520.88,543.618c-2.99-0.431-5.98-0.861-9.162-1.32c-0.692-3.337,1.281-4.247,4.435-3.994
			c0.013,0.001,0.304,0.007,0.304,0.007c1.85,0.17,3.701,0.339,5.551,0.509c-2.711,0.643-5.423,1.286-7.655,1.815
			C516.217,541.487,518.548,542.552,520.88,543.618z"/>
		<path fill="#FBFAFC" d="M522.009,538.821c-1.851-0.17-3.701-0.339-5.551-0.509c1.895-0.339,3.789-0.679,5.683-1.018
			c0.151,0.286,0.337,0.549,0.556,0.788C522.467,538.328,522.238,538.574,522.009,538.821z"/>
		<path fill="#736899" d="M522.696,538.081c-0.219-0.24-0.405-0.502-0.556-0.788C522.327,537.556,522.512,537.819,522.696,538.081z"
			/>
		<path fill="#E67D45" d="M413.041,107.585c0.36,0.329,0.719,0.658,1.071,0.984c-0.666,1.259-1.429,2.477-1.963,3.789
			c-2.38,5.846-7.29,8.169-12.999,8.529c-5.065,0.319-10.033-0.643-12.393-6.225c-0.138-1.432-0.277-2.863-0.416-4.295
			c-0.089-0.629-0.178-1.258-0.267-1.886c0.101-0.399,0.203-0.798,0.305-1.198c0.081-0.102,0.239-0.213,0.229-0.303
			c-0.028-0.233-0.131-0.457-0.204-0.685c-0.167-0.32-0.158-0.634,0.027-0.945c0.517-1.584,1.424-3.154,1.479-4.752
			c0.186-5.435,0.071-10.88,0.071-17.678c5.885,10.22,11.233,18.685,22.564,20.592C411.576,103.686,412.218,106.173,413.041,107.585
			z"/>
		<path fill="#250F14" d="M386.379,107.283c-0.102,0.399-0.204,0.799-0.305,1.198c0.001,0-0.376,0.077-0.376,0.077
			s-0.379-0.067-0.379-0.066c-0.433-0.402-0.866-0.805-1.299-1.207c0.048-8.42,0.096-16.84,0.143-25.261
			c0.782,2.558,1.564,5.118,2.346,7.677c0.001,3.047,0.001,6.094,0.002,9.141c-0.027,2.17-0.053,4.339-0.08,6.509
			c-0.185,0.31-0.194,0.624-0.027,0.945C386.395,106.626,386.387,106.954,386.379,107.283z"/>
		<path fill="#EB9A70" d="M474.754,193.073c-0.711,0.946-1.423,1.892-2.137,2.836C473.328,194.962,474.041,194.018,474.754,193.073z
			"/>
		<path fill="#ED935E" d="M386.341,110.367c0.139,1.431,0.278,2.862,0.416,4.295C386.618,113.231,386.479,111.799,386.341,110.367z"
			/>
		<path fill="#EA9A73" d="M360.201,245.58c0.249-1.096,0.497-2.192,0.745-3.289C360.698,243.388,360.45,244.484,360.201,245.58z"/>
		<path fill="#D4C6E1" d="M354.702,144.536c-0.108,0.025-0.272,0.106-0.314,0.064c-0.085-0.084-0.104-0.235-0.151-0.358
			c0.18-0.037,0.359-0.073,0.539-0.11C354.752,144.267,354.727,144.401,354.702,144.536z"/>
		<path fill="#EB9A70" d="M471.734,197.028c-0.305,0.397-0.61,0.793-0.916,1.19C471.123,197.821,471.428,197.424,471.734,197.028z"
			/>
		<path fill="#EB9A70" d="M475.839,191.919c-0.345,0.397-0.691,0.794-1.038,1.19C475.146,192.712,475.493,192.316,475.839,191.919z"
			/>
		<path fill="#EB9A70" d="M472.601,195.965c-0.297,0.351-0.594,0.701-0.893,1.051C472.004,196.665,472.302,196.315,472.601,195.965z
			"/>
		<path fill="#ED935E" d="M386.508,89.701c-0.782-2.559-1.564-5.118-2.346-7.677c-1.027-3.116-2.502-6.176-2.908-9.371
			c-0.226-1.779,0.857-4.352,2.238-5.494c0.953-0.788,3.425,0.263,4.918,0.453c6.236-6.277,12.578-12.661,19.257-19.385
			c2.944,1.231,7.104,3.105,11.361,4.721c7.334,2.783,11.105,8.017,10.837,15.827c-0.362,10.579-2.556,20.633-9.605,29.035
			c-0.852,1.015-1.585,2.391-2.691,2.883c-3.093,1.376-4.122,3.871-4.529,6.89c-0.823-1.411-1.465-3.898-2.497-4.071
			c-11.331-1.908-16.679-10.372-22.564-20.592c0,6.799,0.115,12.244-0.071,17.678c-0.055,1.599-0.962,3.168-1.479,4.752
			c0.027-2.169,0.053-4.338,0.08-6.503C386.509,95.802,386.508,92.751,386.508,89.701z M406.839,90.374
			c4.323,7.272,8.556,7.361,11.875,1.108C414.586,91.097,410.712,90.735,406.839,90.374z M412.833,65.799
			c-2.294-5.449-6.278-6.653-11.573-4.169C404.68,62.862,408.637,64.288,412.833,65.799z"/>
		<path fill="#EB9A70" d="M515.802,142.204c0.732,0.439,1.464,0.878,2.196,1.318c-1.368,0.671-2.736,1.342-4.104,2.012
			c-0.279-0.498-0.558-0.996-0.837-1.495C513.972,143.428,514.887,142.816,515.802,142.204z"/>
		<path fill="#EB9A70" d="M519.936,143.24c0.972-0.688,1.944-1.376,2.914-2.065C521.879,141.862,520.907,142.551,519.936,143.24z"/>
		<path fill="#7767A3" d="M447.734,551.089c-6.636-0.102-13.273-0.204-19.909-0.306
			C434.461,550.885,441.097,550.987,447.734,551.089z"/>
		<path fill="#ED935E" d="M386.379,107.283c0.008-0.329,0.017-0.658,0.025-0.987c0.073,0.227,0.176,0.451,0.204,0.684
			C386.618,107.071,386.46,107.182,386.379,107.283z"/>
		<path fill="#E67D45" d="M386.508,89.701c0,3.05,0.001,6.101,0.002,9.146C386.509,95.795,386.509,92.748,386.508,89.701z"/>
		<path fill="#D76653" d="M406.839,90.374c3.873,0.362,7.746,0.723,11.875,1.108C415.395,97.735,411.162,97.646,406.839,90.374z"/>
		<path fill="#ED935E" d="M412.833,65.799c-4.196-1.511-8.153-2.937-11.573-4.169"/>
		<g>
			<g>
				<path fill="#ED935E" d="M420.262,65.091c-5.813-3.262-12.013-6.029-18.597-7.252c-3.151-0.585-4.497,4.233-1.329,4.821
					c6.192,1.15,11.935,3.679,17.403,6.748C420.553,70.989,423.073,66.669,420.262,65.091L420.262,65.091z"/>
			</g>
		</g>
	</g>
	<g>
		<g>
			<path fill="#ED935E" d="M410.165,60.339c-0.747-0.114-1.472-0.273-2.185-0.525c0.179,0.081,0.13,0.056-0.146-0.075
				c-0.161-0.083-0.319-0.172-0.472-0.269c-0.255-0.152-0.284-0.192-0.594-0.488c-2.329-2.228-5.87,1.303-3.536,3.536
				c1.564,1.496,3.48,2.32,5.603,2.643c1.346,0.205,2.682-0.318,3.075-1.746C412.24,62.219,411.514,60.545,410.165,60.339
				L410.165,60.339z"/>
		</g>
	</g>
	<g>
		<g>
			<path fill="#ED935E" d="M400.841,59.488c-2.052,3.061,0.401,5.529,3.259,6.487c1.319,0.442,2.71,0.678,4.061,1
				c0.655,0.156,1.301,0.338,1.937,0.556c0.747,0.257-0.183-0.122,0.443,0.212c0.549,0.294-0.183-0.406,0.049,0.018
				c1.548,2.829,5.866,0.306,4.317-2.524c-1.175-2.147-3.928-2.742-6.117-3.249c-1.126-0.26-2.257-0.495-3.362-0.836
				c-0.545-0.168-0.447-0.134-0.888-0.404c0.378,0.232,0.486,0.627,0.527,1.074c0.021,0.231-0.237,0.675,0.09,0.188
				C406.96,59.325,402.627,56.825,400.841,59.488L400.841,59.488z"/>
		</g>
	</g>
</g>
</svg>
