<?xml version="1.0" encoding="utf-8"?>
<!-- Generator: Adobe Illustrator 17.0.0, SVG Export Plug-In . SVG Version: 6.00 Build 0)  -->
<!DOCTYPE svg PUBLIC "-//W3C//DTD SVG 1.1//EN" "http://www.w3.org/Graphics/SVG/1.1/DTD/svg11.dtd">
<svg version="1.1" id="Layer_1" xmlns="http://www.w3.org/2000/svg" xmlns:xlink="http://www.w3.org/1999/xlink" x="0px" y="0px"
	 width="841.89px" height="595.28px" viewBox="0 0 841.89 595.28" enable-background="new 0 0 841.89 595.28" xml:space="preserve">
<g>
	<g>
		<path fill="#D2ECF5" d="M361.156,413.277c1.629,6.658,8.338,5.327,12.514,7.98c5.063,3.217,10.541,6,14.973,9.945
			c8.492,7.557,3.821,14.372-3.067,19.622c-10.739,8.185-23.702,10.964-36.736,13.576c-17.1,3.426-34.355,3.487-51.555,2.698
			c-18.364-0.842-36.667-3.458-53.412-11.674c-5.077-2.491-9.366-7.023-13.308-11.275c-4.252-4.587-1.567-9.513,1.607-13.328
			c5.904-7.096,14.141-10.396,22.95-12.388c-0.053,0.995-0.242,2.008-0.126,2.984c0.186,1.564,0.575,3.104,0.878,4.654
			c1.322-1.223,2.709-2.384,3.95-3.684c1.532-1.606,2.639-3.895,4.472-4.877c3.455-1.85,7.236-3.184,11.011-4.293
			c1.411-0.415,4.013-0.184,4.66,0.74c5.99,8.552,17.184,13.458,18.11,25.64c0.068,0.901,1.947,1.664,2.985,2.491
			c0.377-1.21,1.249-2.507,1.054-3.615c-1.6-9.078-3.398-18.121-5.136-27.174c5.4-0.009,10.804-0.143,16.198,0.025
			c2.666,0.083,5.314,0.724,7.97,1.112c-2.243,6.684-4.487,13.367-6.734,20.041c-0.388,0.921-0.772,1.851-1.156,2.781
			c-3.435,0.912-6.37,2.343-5.072,6.689c1.143,3.829,2.616,7.56,3.943,11.334c0.644,1.259,1.288,2.517,1.932,3.776l0.194,0.196
			c0.218,0.2,0.437,0.4,0.655,0.599c2.626,2.058,4.809,2.502,5.748-1.58c0.082-0.664,0.163-1.327,0.245-1.991
			c-0.01-3.339-0.02-6.679-0.03-10.018c0.173-0.323,0.167-0.643-0.017-0.96c-0.068-0.526-0.136-1.053-0.204-1.579
			c0.711-1.557,1.421-3.115,2.132-4.672c0.966-1.314,2.084-2.543,2.874-3.956c3.867-6.919,7.647-13.888,11.458-20.839
			c4.521,0.98,9.042,1.96,13.564,2.941c0.606,1.755,1.212,3.511,1.814,5.264c-0.287,1.022-0.571,2.046-0.855,3.07
			c-4.889,5.048-4.945,5.754,0.903,9.66c4.962,3.315,10.166,6.277,15.352,9.24c1.032,0.589,2.465,0.476,4.353,0.794
			c-3.035-6.019-5.586-11.077-8.137-16.135c-1.038-2.84-2.076-5.68-3.114-8.52C361.049,416.806,361.102,415.041,361.156,413.277z"/>
		<path fill="#D2ECF5" d="M570.805,421.236c13.244,1.564,26.024,4.722,37.286,12.168c9.371,6.195,9.294,15.334,0.143,21.762
			c-7.742,5.438-16.622,7.805-25.644,10.247c-18.085,4.895-36.491,4.236-54.794,3.66c-15.588-0.49-30.98-3.688-45.356-10.018
			c-4.63-2.039-8.675-5.837-12.361-9.468c-3.516-3.463-2.591-8.65,0.542-12.535c4.068-5.044,9.757-7.233,15.341-9.554
			c11.832-4.917,24.411-6.71,37.028-8.226c0.944,6.665,1.888,13.331,2.831,19.996c-2.776,2.043-5.819,3.822-8.22,6.238
			c-1.263,1.271-1.405,3.656-2.053,5.537c1.958,0.286,4.171,1.298,5.824,0.717c4.399-1.547,8.679-3.566,12.728-5.883
			c1.098-0.628,1.209-2.981,1.773-4.542c0.281-10.161,0.562-20.322,0.843-30.483c0.858,8.391,0.858,8.391,9.463,8.409
			c1.318,0.003,2.673-0.189,3.947,0.049c5.281,0.987,7.639-1.125,7.162-6.455c0.329,7.551,0.539,15.11,1.059,22.648
			c0.163,2.358,1.162,4.659,1.778,6.986c-0.034,2.814-0.339,5.657-0.037,8.435c0.413,3.809,3.255,5.423,6.686,5.17
			c3.877-0.287,3.933-3.36,3.45-6.334c-0.397-2.449-0.945-4.874-1.426-7.31C569.467,435.38,570.136,428.308,570.805,421.236z"/>
		<path fill="#9ED8EB" d="M391.887,157.199c0.03-2.792,0.119-5.584,0.074-8.375c-0.05-3.022,1.05-5.087,4.234-5.633
			c8.714,2.72,17.441,5.401,26.14,8.167c24.834,7.897,49.658,15.821,74.481,23.752c4.399,1.406,7.185,4.354,7.192,9.067
			c0.033,20.793-0.087,41.586-0.151,62.379c-1.32-2.381-2.641-4.762-3.961-7.143c-0.027-7.185-0.055-14.37-0.082-21.556
			c0.073-2.987-0.157-6.02,0.286-8.952c0.75-4.969-1.559-6.933-6.055-8.272c-19.034-5.667-37.985-11.617-56.947-17.525
			c-11.074-3.45-22.104-7.039-33.171-10.511c-2.452-0.769-4.976-1.311-7.826-2.051c0,5.557,0,10.521,0,15.485
			c-0.279,9.766-0.276,9.757,8.799,13.086c0.737,0.27,1.387,0.78,2.077,1.178c-4.032,1.323-8.064,2.645-12.096,3.968
			c-5.693-1.983-11.385-3.965-17.078-5.948c3.03-1.057,5.988-2.536,9.107-3.069c4.23-0.723,5.907-2.685,4.935-6.861
			C391.86,177.989,391.873,167.594,391.887,157.199z M461.196,178.296c0.479-0.643,0.959-1.286,1.438-1.929
			c-1.445-1.365-2.662-3.367-4.376-3.982c-6.685-2.398-13.506-4.437-20.336-6.401c-1.117-0.321-2.536,0.406-3.815,0.648
			c0.708,1.355,1.124,3.574,2.17,3.927C444.516,173.339,452.875,175.763,461.196,178.296z M410.935,159.399
			c-2.551-1.704-4.262-3.046-6.184-3.92c-0.293-0.133-2.436,2.593-2.253,2.821c1.328,1.661,2.931,3.179,4.716,4.323
			C407.52,162.82,409.109,161.014,410.935,159.399z"/>
		<path fill="#4D71B7" d="M536.716,410.855c-0.281,10.161-0.562,20.322-0.843,30.483c-3.534,0.202-7.503,2.517-10.052-2.068
			c-0.944-6.665-1.888-13.331-2.831-19.996c-0.3-9.594-0.6-19.189-0.901-28.784c1.036-4.165,1.883-8.387,3.144-12.481
			c4.203-13.646,8.555-27.246,12.849-40.863c11.251,8.16,23.359,8.723,36.057,4.069c-1.111,26.674-2.222,53.348-3.333,80.022
			c-0.669,7.072-1.338,14.144-2.006,21.215c-2.891,0.013-5.782,0.026-8.673,0.039c-0.616-2.327-1.616-4.628-1.778-6.986
			c-0.52-7.538-0.729-15.097-1.06-22.646c-0.147-4.533-0.292-9.069-0.438-13.604c-0.659-15.312-1.318-30.624-1.978-45.936
			c-0.417-0.113-0.835-0.226-1.252-0.339c-5.125,12.782-10.249,25.565-15.374,38.347
			C537.736,397.836,537.226,404.345,536.716,410.855z"/>
		<path fill="#2C3278" d="M352.497,420.463c-0.606-1.755-1.211-3.511-1.817-5.266c-1.901-6.95-3.801-13.9-5.926-21.671
			c-2.791,6.843-5.214,12.787-7.638,18.73c-3.811,6.951-7.591,13.919-11.458,20.839c-0.79,1.413-1.907,2.642-2.859,3.954
			c-2.784-1.522-5.583-3.042-8.381-4.562c2.243-6.684,4.487-13.367,6.73-20.05c1.57-5.389,3.14-10.78,4.71-16.17
			c0.306-1.156,0.612-2.312,1.135-4.287c-8.887,0-17.001-0.179-25.1,0.096c-2.902,0.098-5.735,1.552-8.658,1.919
			c-3.266,0.41-6.609,0.512-9.899,0.354c-7.197-0.346-11.288-3.838-13.351-11.005c10.589,0.94,20.552-1.053,29.022-7.602
			c2.386-1.845,3.327-5.559,4.93-8.416c3.665-1.674,7.33-3.348,10.995-5.022c6.301-1.595,12.603-3.19,18.904-4.785
			c12.591-1.287,18.155,1.95,20.938,14.669c2.816,12.87,4.111,26.073,6.072,39.13c0.098,0.654,0.206,1.306,0.309,1.959
			c-0.054,1.765-0.108,3.529-0.161,5.292C358.163,419.199,355.33,419.831,352.497,420.463z M326.776,381.847
			c-0.271-0.591-0.542-1.182-0.813-1.774c-6.867,3.316-13.735,6.632-20.602,9.948C314.996,392.753,319.569,384.41,326.776,381.847z"
			/>
		<path fill="#D2ECF5" d="M391.879,344.361c-9.022-2.618-18.057-5.192-27.063-7.867c-10.216-3.035-20.418-6.118-30.598-9.273
			c-3.281-1.017-7.09-1.607-9.526-3.706c-2.33-2.008-3.814-5.581-4.526-8.725c-0.79-3.488-0.284-7.27-0.342-10.92
			c6.847-6.441,13.719-12.858,20.527-19.343c2.629-2.505,4.785-6.803,7.734-7.392c5.215-1.04,6.36-4.371,7.753-8.193
			c-0.507,4.764,1.672,7.084,6.305,8.373c10.02,2.787,19.886,6.126,29.815,9.239C391.932,305.823,391.905,325.092,391.879,344.361z
			 M356.007,298.833c0,3.322-0.39,6.707,0.138,9.942c0.348,2.134,1.557,5.233,3.175,5.865c7.499,2.929,15.23,5.303,22.976,7.535
			c2.827,0.815,4.771-0.506,4.72-3.944c-0.102-6.808,0.293-13.644-0.237-20.412c-0.167-2.136-2.2-5.18-4.117-5.936
			c-7.167-2.827-14.63-4.91-22.003-7.206c-3.245-1.01-4.7,0.399-4.658,3.693C356.045,291.857,356.01,295.345,356.007,298.833z"/>
		<path fill="#A0DCED" d="M391.879,344.361c0.026-19.269,0.053-38.538,0.079-57.807c1.371,0.472,2.741,0.944,4.111,1.417
			c-0.024,19.488,0.099,38.978-0.191,58.462c-0.061,4.129,1.863,5.626,5.103,6.633c25.047,7.785,50.096,15.566,75.148,23.338
			c7.683,2.384,15.375,4.735,23.874,7.351c0-8.295-0.128-15.589,0.099-22.871c0.051-1.622,1.354-3.204,2.081-4.805
			c0.567,0.127,1.135,0.255,1.702,0.382c0.069,14.953,0.139,29.906,0.208,44.859c-3.049,0.459-6.439,2.023-9.095,1.205
			c-26.109-8.039-52.1-16.459-78.114-24.806c-6.155-1.975-12.263-4.096-18.404-6.115c-4.748-1.561-6.779-4.737-6.583-9.776
			C392.123,356.015,391.905,350.184,391.879,344.361z M441.696,370.653c-1.315,1.005-3.396,2.087-3.264,2.589
			c0.455,1.737,1.303,4.092,2.684,4.729c3.887,1.792,8.065,3.051,12.239,4.065c1.253,0.304,2.868-0.885,4.317-1.391
			c-0.552-1.286-0.76-3.262-1.716-3.739C451.424,374.645,446.688,372.792,441.696,370.653z"/>
		<path fill="#2C3278" d="M574.138,341.214c-12.697,4.655-24.805,4.091-36.057-4.068c0.144-1.805,0.2-3.622,0.444-5.414
			c1.75-12.82,3.539-25.635,5.315-38.452c0.149-2.278,0.299-4.556,0.378-5.761c-3.691-2.569-6.559-4.566-9.427-6.562
			c0.681-3.145,1.363-6.29,2.044-9.435c3.846-0.372,7.688-0.812,11.541-1.091c2.447-0.177,4.911-0.115,7.368-0.159
			c3.194,3.871,5.273,3.855,8.377-0.064c12.171,3.372,16.796,12.893,19.528,23.949c-3.283,1.993-6.571,3.996-10.004,6.088
			c0.477,0.977,0.978,2.005,1.48,3.033c0.283,5.719,0.566,11.437,0.849,17.156c-3.433-0.399-6.865-0.798-10.298-1.198
			c0.064-2.821,0.217-5.643,0.176-8.463c-0.192-13.138,2.326-11.108-11.779-11.356c-0.166-0.003-0.404-0.069-0.488,0.015
			c-1.197,1.195-3.248,2.316-3.393,3.641c-0.448,4.105-0.169,8.289-0.172,12.442c-1.768,7.109-0.764,8.113,6.102,8.697
			c6.649,0.565,13.226,1.985,20.371,3.114c0,3.712,0,6.811,0,9.911C575.71,338.562,574.924,339.888,574.138,341.214z"/>
		<path fill="#D2ECF5" d="M467.496,159.605c0.503-1.812,1.103-3.605,1.483-5.442c0.377-1.826,0.533-3.698,0.829-5.865
			c11.024,3.544,21.298,6.948,31.638,10.136c6.898,2.127,13.91,3.882,20.831,5.936c3.281,0.974,6.435,2.372,9.707,3.382
			c7.262,2.242,14.593,4.266,21.818,6.62c1.256,0.409,3.023,1.983,3.04,3.043c0.209,13.089,0.136,26.183,0.136,40.733
			c-5.899-1.787-10.852-3.295-15.809-4.787c-10.094-3.037-20.191-6.066-30.286-9.099c-0.047-6.463-0.066-12.925-0.15-19.388
			c-0.127-9.78-1.528-11.67-10.707-14.663C489.182,166.677,478.339,163.141,467.496,159.605z M548.083,206.232
			c0-8.212,0.093-14.966-0.106-21.712c-0.028-0.951-1.311-2.347-2.31-2.704c-4.507-1.607-9.104-2.974-13.703-4.307
			c-2.668-0.774-4.055,0.169-3.994,3.175c0.109,5.468-0.029,10.941,0.075,16.409c0.02,1.043,0.432,2.772,1.08,3
			C535.074,202.187,541.115,204.02,548.083,206.232z"/>
		<path fill="#A3DBEB" d="M269.985,383.342c2.063,7.167,6.153,10.659,13.351,11.005c3.29,0.158,6.633,0.057,9.899-0.354
			c2.923-0.367,5.755-1.821,8.658-1.919c8.099-0.275,16.213-0.096,25.1-0.096c-0.523,1.975-0.829,3.131-1.135,4.287
			c-9.332,3.059-18.671,6.098-27.994,9.185c-4.039,1.338-3.026,3.528-0.883,5.846c1.738,9.053,3.537,18.096,5.136,27.174
			c0.195,1.109-0.676,2.406-1.054,3.615c-1.037-0.827-2.916-1.59-2.985-2.491c-0.926-12.182-12.12-17.089-18.11-25.64
			c-0.648-0.925-3.249-1.155-4.66-0.74c-3.775,1.109-7.556,2.443-11.011,4.293c-1.833,0.981-2.94,3.271-4.472,4.877
			c-1.241,1.3-2.628,2.461-3.95,3.684c-0.303-1.55-0.692-3.09-0.878-4.654c-0.116-0.977,0.073-1.99,0.126-2.984
			c3.152-5.731,6.421-11.406,9.332-17.258c0.455-0.915-0.32-3.037-1.204-3.928c-7.172-7.232-10.162-16.391-10.921-26.034
			c-1.188-15.1-0.905-30.2,7.214-43.859c0.906-1.524,2.251-2.785,3.393-4.168c0.178,1.342,0.356,2.683,0.53,4.024
			c-1.509,11.707-3.374,23.384-4.387,35.133c-0.614,7.123,1.659,8.859,8.923,9.076C268.664,375.393,269.324,379.368,269.985,383.342
			z M291.01,408.274c-2.681,0.389-5.362,0.777-8.043,1.166c0.314,0.986,0.627,1.973,0.941,2.959c2.97,3.613,5.939,7.227,8.909,10.84
			c0.386-0.23,0.773-0.46,1.159-0.69c-0.698-3.781-1.395-7.563-2.093-11.344c-0.001-0.623-0.001-1.246-0.002-1.868
			C291.591,408.983,291.301,408.629,291.01,408.274z M275.751,410.087c-0.656,0.268-1.312,0.536-1.968,0.805
			c-1.121-2.968-2.243-5.935-3.364-8.903c-0.612,0.504-1.224,1.008-1.836,1.511c-1.567,3.357-3.133,6.714-4.7,10.071
			c0.37,0.293,0.741,0.587,1.111,0.88C268.58,412.996,272.166,411.541,275.751,410.087z"/>
		<path fill="#4D71B7" d="M263.469,327.209c-0.178-1.341-0.356-2.682-0.533-4.024c0.633-2.223,1.512-4.409,1.852-6.675
			c1.098-7.303,5.559-10.919,12.538-11.975c1.404,4.987,4.367,6.424,10.294,4.952c0.303-1.75,0.61-3.522,0.918-5.295
			c4.748-0.557,9.497-1.113,14.246-1.67c1.192,2.495,2.383,4.99,3.575,7.485c-1.163,1.279-2.089,3.158-3.532,3.729
			c-5.061,2.002-7.002,5.374-5.869,10.657c0.203,0.948,0.079,1.967,0.107,2.952c-0.839,11.431,0.675,22.553,4.394,33.382
			c-2.148,0.516-4.294,1.034-6.44,1.551c-1.002,0.025-2.003,0.05-3.005,0.075c-1.349,0.015-2.699,0.03-4.048,0.045
			c-6.549,0.242-13.099,0.484-19.648,0.725c-0.212-0.617-0.424-1.235-0.636-1.852c1.127-6.651,2.253-13.301,3.38-19.952
			c1.093-3.753,2.186-7.505,3.283-11.274c-3.746-0.853-6.94-1.58-10.134-2.307C264.035,327.471,263.788,327.295,263.469,327.209z"/>
		<path fill="#CFEAF3" d="M543.842,293.281c-1.776,12.817-3.565,25.632-5.315,38.452c-0.245,1.792-0.301,3.609-0.444,5.414
			c-4.295,13.617-8.646,27.217-12.849,40.862c-1.261,4.094-2.108,8.316-3.144,12.481c-0.387-6.6-0.387-6.6-11.198-8.227
			c-0.051-6.608-0.171-13.216-0.088-19.822c0.014-1.116,0.903-2.221,1.386-3.332c2.138,0.453,4.278,0.907,6.433,1.364
			c0.383-6.532,0.727-12.403,1.073-18.276c0.615,0.257,1.214,0.559,1.843,0.767c6,1.982,6.46,1.643,6.479-4.776
			c0.013-4.328,0.043-8.657,0.001-12.984c-0.123-12.646,1.662-10.543-11.133-14.708c-0.305-0.099-0.66-0.047-0.991-0.066
			c-1.609-0.446-3.217-0.891-4.826-1.337c-0.059-8.266-0.119-16.531-0.178-24.797c1.883,0.57,3.753,1.19,5.653,1.7
			C525.638,288.44,534.741,290.855,543.842,293.281z"/>
		<path fill="#D2EBF3" d="M352.13,235.305c10.52,3.119,21.049,6.213,31.556,9.376c2.466,0.742,4.862,1.716,7.29,2.584
			c0.32,2.657,0.64,5.314,0.96,7.972c-11.674-3.411-23.349-6.821-35.814-10.463c0,7.34,0,13.773,0,20.205
			c-5.875,4.763-11.646,9.663-17.655,14.252c-6.001,4.583-12.24,8.855-18.375,13.263c-0.035-17.275-0.094-34.55-0.059-51.824
			c0.003-1.42,0.645-2.838,0.99-4.257c10.437,3.199,21.816,4.133,29.609,13.056c0.697-0.766,1.083-0.992,1.092-1.231
			C351.887,243.928,352.004,239.616,352.13,235.305z"/>
		<path fill="#5376BA" d="M467.496,159.605c10.843,3.536,21.686,7.072,32.53,10.607c9.179,2.993,10.581,4.883,10.707,14.663
			c0.084,6.462,0.102,12.925,0.15,19.388c-0.059,15.316-0.112,30.633-0.184,45.949c-0.009,1.828-0.125,3.655-0.189,5.478
			c-2.216-3.048-4.434-6.09-6.653-9.133c0.064-20.793,0.184-41.586,0.151-62.379c-0.007-4.713-2.793-7.662-7.192-9.067
			c-24.823-7.931-49.647-15.855-74.481-23.752c-8.699-2.766-17.426-5.447-26.14-8.167c3.543-3.546,7.341-3.848,12.168-2.261
			C427.998,147.384,447.773,153.417,467.496,159.605z"/>
		<path fill="#D2ECF5" d="M391.887,157.199c-0.013,10.395-0.027,20.79-0.041,31.186c-6.658-1.887-13.325-3.736-19.966-5.675
			c-4.919-1.437-9.802-2.994-14.703-4.492c-3.622-1.107-5.428-3.261-5.225-7.333c0.298-5.98-0.199-12.006,0.23-17.97
			c0.425-5.909,1.234-6.343,6.813-4.769c9.378,2.647,18.691,5.526,28.051,8.238C388.607,156.837,390.27,156.936,391.887,157.199z
			 M383.151,168.79c-0.583-2.047-0.614-3.48-1.097-3.653c-6.516-2.34-13.083-4.54-19.683-6.635c-0.469-0.149-1.85,0.84-1.822,1.228
			c0.059,0.8,0.621,2.035,1.259,2.249C368.574,164.245,375.394,166.345,383.151,168.79z M359.83,164.665
			c1.549,4.445,11.362,9.448,13.746,8.039c0.502-0.297,0.596-2.543,0.36-2.64C369.571,168.26,365.128,166.645,359.83,164.665z"/>
		<path fill="#EB4C83" d="M352.13,235.305c-0.126,4.311-0.243,8.623-0.405,12.933c-0.009,0.239-0.396,0.465-1.092,1.231
			c-7.793-8.923-19.173-9.857-29.609-13.056c-10.481-3.97-10.361-3.972-10.564-15.343c-0.244-13.695-0.094-11.672,11.41-8.349
			c7.646,2.209,15.194,4.776,22.884,6.813c5.28,1.399,8.14,3.986,7.241,9.814C351.695,231.28,352.066,233.316,352.13,235.305z
			 M348.022,235.939c-6.587-4.98-14.755-6.114-22.634-8.866C325.749,231.156,339.695,236.915,348.022,235.939z M314.151,216.947
			c1.629,3.796,6.752,6.094,14.263,6.712C328.424,219.992,322.074,216.907,314.151,216.947z M333.173,222.862
			c1.328,3.788,7.242,6.421,14.424,6.741C347.347,226.026,341.304,223.119,333.173,222.862z"/>
		<path fill="#2E3278" d="M277.753,301.567c-2.706-3.455-5.413-6.911-8.452-10.792c-7.252,0.656-10.613-4.241-9.154-14.9
			c4.531,0.46,8.23-8.061,13.38-0.919c6.941-4.947,14.154-7.163,21.579-1.579c4.077,3.066,4.31,7.271,1.584,14.099
			c-0.685-0.686-1.287-1.833-2.075-1.981c-8.517-1.592-14.726,3.534-15.434,12.437C279.082,299.174,278.247,300.357,277.753,301.567
			z"/>
		<path fill="#EDA58A" d="M576.496,337.236c0-3.099,0-6.199,0-9.911c-7.145-1.129-13.722-2.549-20.371-3.114
			c-6.866-0.583-7.87-1.588-6.103-8.695c1.217,0.262,2.436,0.521,4.153,0.887c-0.403-1.815-0.671-3.02-0.732-3.295
			c3.841,1.924,8.038,4.026,12.235,6.128c3.433,0.399,6.865,0.798,10.298,1.197c2.472,0.327,4.944,0.654,8.846,1.171
			c-3.712-7.016-6.703-12.671-9.695-18.326c-0.501-1.028-1.003-2.055-1.48-3.033c3.433-2.092,6.721-4.095,10.004-6.088
			c2.761,7.774,5.844,15.443,8.208,23.327c2.624,8.748-0.417,12.135-9.528,11.444c-1.614-0.122-3.217-0.396-5.093-0.634
			C576.977,331.448,576.737,334.342,576.496,337.236z"/>
		<path fill="#F2AA8E" d="M503.856,246.557c2.219,3.043,4.437,6.085,6.653,9.133c2.559,5.979,7.439,9.47,13.196,11.727
			c4.259,1.67,8.747,2.756,13.132,4.104c-0.683,3.147-1.364,6.292-2.045,9.44c-7.969-3.968-15.939-7.941-23.909-11.913
			c-2.179-2.727-4.359-5.454-6.538-8.182c-1.4-2.601-2.8-5.202-4.199-7.804c-1.534-3.646-2.21-8.219-4.855-10.666
			c-2.422-2.242-6.97-2.187-11.073-3.275c1.451-0.492,2.547-0.864,3.074-1.043c-0.565-2.983-1.061-5.601-1.721-9.085
			c5.438,3.956,9.88,7.189,14.322,10.421C501.215,241.795,502.536,244.176,503.856,246.557z"/>
		<path fill="#F2AA8E" d="M320.093,292.494c6.135-4.408,12.373-8.68,18.375-13.263c6.008-4.589,11.78-9.488,17.656-14.25
			c0.402,0.494,1.222,1.102,1.123,1.455c-0.25,0.896-0.911,1.677-1.408,2.504c-1.393,3.825-2.538,7.156-7.753,8.196
			c-2.949,0.588-5.104,4.887-7.734,7.392c-6.807,6.485-13.679,12.902-20.527,19.343c-4.49,2.045-8.978,4.094-13.467,6.139
			c-1.191-2.498-2.382-4.993-3.574-7.488C308.553,299.179,314.323,295.837,320.093,292.494z"/>
		<path fill="#2E3278" d="M550.429,250.77c-0.614-4.076-1.228-8.151-1.828-12.139c4.701-0.906,8.012-1.945,11.363-2.098
			c5.197-0.238,9.886,1.314,12.746,6.139c2.759,4.656,2.327,11.75-1.337,15.865c-2.045,2.297-4.822,3.942-7.27,5.88
			c-0.076-0.951,0.144-2.069-0.28-2.824c-1.539-2.742-2.804-5.96-5.111-7.853C556.576,251.988,553.238,251.702,550.429,250.77z"/>
		<path fill="#2E367B" d="M377.802,198.315c5.693,1.983,11.385,3.965,17.079,5.949c0.033,7.362,0.065,14.723,0.097,22.084
			c-0.18,0.233-0.29,0.496-0.33,0.787c-1.198-0.007-2.395-0.013-3.593-0.02c-3.749-1.269-7.431-2.827-11.267-3.728
			c-3.97-0.932-5.842-2.616-5.414-7.046c0.46-4.751-0.137-9.601,0.244-14.366C374.723,200.679,376.69,199.531,377.802,198.315z
			 M384.65,220.813c1.761-2.151,3.092-3.583,4.202-5.17c2.545-3.64,0.952-8.799-3.337-10.082c-1.519-0.454-3.814-0.226-4.981,0.683
			c-0.877,0.684-1.074,3.155-0.597,4.478C381.122,214.01,382.866,217.095,384.65,220.813z"/>
		<path fill="#5376BA" d="M333.837,357.517c-6.301,1.595-12.603,3.19-18.904,4.784c-2.037-0.704-4.075-1.407-6.112-2.11
			c0.414-0.984,0.827-1.968,1.241-2.953c6.672-8.936,15.467-13.457,26.735-13.15c2.429,0.066,4.878-0.622,7.983-0.056
			c-3.623,3.657-7.288,7.274-10.813,11.023C333.537,355.513,333.862,356.68,333.837,357.517z"/>
		<path fill="#EDA58A" d="M277.753,301.567c0.494-1.21,1.329-2.393,1.427-3.635c0.709-8.903,6.917-14.029,15.434-12.437
			c0.788,0.147,1.39,1.295,2.075,1.981c-0.11,2.582-0.175,5.163-0.336,7.739c-0.222,3.574-1.489,6.237-5.564,6.82
			c-0.833,0.119-1.5,1.406-2.248,2.155c-0.312,1.773-0.619,3.546-0.922,5.296c-5.928,1.472-8.891,0.035-10.294-4.952
			C277.471,303.546,277.612,302.556,277.753,301.567z"/>
		<path fill="#5376BA" d="M512.19,359.108c-0.485,1.11-1.374,2.215-1.388,3.331c-0.083,6.606,0.037,13.215,0.088,19.822
			c-0.069,2.65-0.442,5.335-0.143,7.943c0.633,5.528-1.185,9.355-6.654,11.115c-0.068-14.953-0.138-29.906-0.207-44.859
			C506.654,357.343,509.422,358.226,512.19,359.108z"/>
		<path fill="#EDA58A" d="M550.429,250.77c2.809,0.932,6.147,1.218,8.283,2.971c2.307,1.894,3.572,5.112,5.111,7.853
			c0.424,0.756,0.204,1.873,0.28,2.824c0.007,1.93,0.013,3.86,0.02,5.79c-3.104,3.919-5.183,3.935-8.376,0.064
			c-0.198-0.585-0.338-1.651-0.599-1.682c-3.048-0.355-5.651-0.801-6.287-4.732C548.116,259.262,546.796,254.772,550.429,250.77z"/>
		<path fill="#34397C" d="M330.527,194.931c1.42,0.184,2.902,0.165,4.249,0.583c10.104,3.142,20.165,6.426,30.279,9.535
			c2.673,0.822,4.552,1.743,3.05,5.439c-11.91-3.738-23.56-7.333-35.148-11.12c-1.264-0.413-2.165-1.939-3.234-2.948
			C329.991,195.924,330.259,195.428,330.527,194.931z"/>
		<path fill="#66B2E3" d="M526.961,229.263c-8.856,1.375-11.558-1.911-10.587-13.067c5.379-2.914,10.668-2.849,15.839,0.71
			C525.478,218.85,524.342,221.524,526.961,229.263z"/>
		<path fill="#34397C" d="M368.708,201.258c-1.262,0-2.616,0.301-3.772-0.049c-7.134-2.163-14.274-4.33-21.285-6.851
			c-1.431-0.514-2.318-2.539-3.456-3.867c1.496-0.082,3.108-0.569,4.468-0.178c6.684,1.923,13.345,3.953,19.914,6.236
			c1.805,0.627,3.263,2.255,4.879,3.424C369.206,200.401,368.957,200.83,368.708,201.258z"/>
		<path fill="#A3DBEB" d="M310.062,357.239c-0.414,0.984-0.827,1.968-1.239,2.953c-2.453,0.179-4.907,0.358-7.362,0.536
			c-3.72-10.831-5.235-21.953-4.396-33.384c2.325,7.633,4.346,15.378,7.135,22.836C305.211,352.886,308.054,354.906,310.062,357.239
			z"/>
		<path fill="#A0DCED" d="M391.056,227.115c1.198,0.007,2.395,0.013,3.594,0.019c0.449,1.319,1.27,2.634,1.284,3.958
			c0.087,8.441-0.003,16.883-0.036,25.325c-1.321-0.394-2.642-0.787-3.963-1.181c-0.32-2.657-0.639-5.314-0.959-7.971
			C391.003,240.548,391.029,233.832,391.056,227.115z"/>
		<path fill="#34397C" d="M368.724,219.148c-8.36-3.541-17.09-3.726-24.349-9.627C350.224,207.023,368.128,213.698,368.724,219.148z
			"/>
		<path fill="#5376BA" d="M526.961,229.263c-2.619-7.739-1.482-10.413,5.253-12.357c0.243,3.033,1.2,6.261,0.448,9.024
			C532.248,227.446,528.955,228.178,526.961,229.263z"/>
		<path fill="#F5F7F9" d="M296.98,411.298c-2.143-2.318-3.156-4.509,0.883-5.846c9.323-3.087,18.662-6.126,27.994-9.185
			c-1.57,5.39-3.14,10.78-4.71,16.17c-2.656-0.389-5.304-1.03-7.97-1.113C307.783,411.155,302.38,411.289,296.98,411.298z"/>
		<path fill="#2E367B" d="M364.109,427.09c2.551,5.058,5.102,10.116,8.137,16.135c-1.888-0.318-3.321-0.204-4.353-0.794
			c-5.186-2.963-10.39-5.925-15.352-9.24c-5.847-3.906-5.792-4.612-0.908-9.659C355.364,426.204,358.474,431.076,364.109,427.09z"/>
		<path fill="#34397C" d="M320.874,444.263c0.01,3.339,0.02,6.679,0.03,10.018c-0.508,0.294-1.015,0.589-1.523,0.883
			c0.426,0.369,0.852,0.739,1.278,1.108c-0.939,4.082-3.121,3.638-5.747,1.58c-0.179-0.242-0.398-0.442-0.656-0.6
			c0,0-0.194-0.196-0.194-0.196c0.169-1.674,1.876-4.136-1.932-3.776c-1.327-3.774-2.8-7.505-3.943-11.334
			c-1.298-4.346,1.637-5.776,5.07-6.689c-0.494,5.54,2.803,6.745,7.397,6.466c0.068,0.526,0.136,1.053,0.204,1.579
			c-0.116,0.094-0.345,0.225-0.328,0.276C320.607,443.819,320.752,444.037,320.874,444.263z M312.988,450.129
			c0.377-0.533,0.79-0.861,0.802-1.202c0.013-0.384-0.335-0.78-0.526-1.171c-0.365,0.376-0.853,0.701-1.04,1.15
			C312.135,449.12,312.622,449.572,312.988,450.129z M318.585,448.002c-0.279-0.121-0.559-0.242-0.838-0.363
			c-0.12,0.281-0.395,0.621-0.316,0.824c0.078,0.199,0.515,0.259,0.794,0.38C318.345,448.563,318.465,448.284,318.585,448.002z"/>
		<path fill="#EBECF2" d="M337.116,412.256c2.424-5.943,4.847-11.887,7.638-18.73c2.125,7.771,4.026,14.721,5.926,21.671
			C346.159,414.216,341.638,413.236,337.116,412.256z"/>
		<path fill="#EDA58A" d="M364.109,427.09c-5.635,3.986-8.744-0.886-12.476-3.558c0.29-1.025,0.574-2.049,0.861-3.071
			c2.836-0.63,5.669-1.262,8.502-1.892C362.033,421.41,363.071,424.25,364.109,427.09z"/>
		<path fill="#EDA58A" d="M320.653,441.723c-4.594,0.278-7.891-0.926-7.397-6.466c0.386-0.929,0.77-1.859,1.158-2.78
			c2.803,1.529,5.601,3.049,8.385,4.572C322.074,438.608,321.363,440.166,320.653,441.723z"/>
		<path fill="#2E367B" d="M312.129,453.28c3.808-0.36,2.101,2.102,1.932,3.776C313.417,455.798,312.773,454.539,312.129,453.28z"/>
		<path fill="#2E367B" d="M320.658,456.272c-0.426-0.369-0.852-0.739-1.278-1.108c0.508-0.294,1.015-0.589,1.523-0.883
			C320.822,454.945,320.74,455.609,320.658,456.272z"/>
		<path fill="#2E367B" d="M320.874,444.263c-0.121-0.226-0.267-0.444-0.345-0.684c-0.017-0.051,0.212-0.182,0.328-0.276
			C321.041,443.619,321.046,443.94,320.874,444.263z"/>
		<path fill="#2E367B" d="M314.255,457.253c0.258,0.157,0.477,0.357,0.656,0.6C314.692,457.652,314.474,457.452,314.255,457.253z"/>
		<path fill="#FEFEFE" d="M536.716,410.855c0.51-6.509,1.02-13.018,1.53-19.528c5.804,0.782,11.608,1.564,17.109,2.306
			c0.584,2.197,1.039,3.91,1.494,5.623c0.146,4.535,0.291,9.07,0.438,13.604c0.478,5.328-1.881,7.44-7.161,6.454
			c-1.274-0.238-2.629-0.046-3.947-0.049C537.574,419.246,537.574,419.246,536.716,410.855z"/>
		<path fill="#2E367B" d="M525.821,439.27c2.549,4.585,6.518,2.27,10.052,2.068c-0.564,1.561-0.675,3.914-1.773,4.542
			c-4.05,2.317-8.33,4.336-12.728,5.883c-1.653,0.581-3.866-0.431-5.824-0.717c0.648-1.882,0.79-4.267,2.053-5.537
			C520.002,443.092,523.044,441.313,525.821,439.27z"/>
		<path fill="#2B347A" d="M560.125,442.491c2.891-0.013,5.782-0.027,8.673-0.039c0.481,2.436,1.029,4.861,1.426,7.31
			c0.482,2.973,0.427,6.047-3.45,6.334c-3.431,0.254-6.273-1.361-6.686-5.17C559.787,448.148,560.091,445.305,560.125,442.491z"/>
		<path fill="#65B0E1" d="M395.898,256.417c0.032-8.442,0.123-16.884,0.036-25.325c-0.014-1.324-0.835-2.639-1.284-3.958
			c0.039-0.291,0.149-0.553,0.329-0.787c3.941-1.077,7.893-2.117,11.81-3.274c0.486-0.144,1.139-0.926,1.122-1.392
			c-0.254-7.131-0.606-14.258-0.936-21.385c-0.69-0.398-1.34-0.908-2.077-1.178c-9.075-3.329-9.078-3.32-8.799-13.086
			c11.58,3.533,23.166,7.047,34.74,10.601c22.995,7.063,45.983,14.149,68.973,21.225c0.028,7.185,0.055,14.37,0.082,21.556
			c-4.443-3.232-8.885-6.464-14.323-10.42c0.66,3.484,1.156,6.102,1.721,9.085c-0.527,0.179-1.623,0.551-3.074,1.043
			c4.104,1.088,8.651,1.034,11.073,3.275c2.644,2.447,3.32,7.02,4.854,10.667c-0.035,23.689-0.07,47.377-0.105,71.065
			c-9.098-2.688-18.197-5.376-28.143-8.314c0,9.18,0.22,17.287-0.091,25.375c-0.16,4.169,1.629,5.919,5.323,7.01
			c8.395,2.479,16.707,5.236,25.053,7.88c-0.727,1.601-2.03,3.183-2.081,4.805c-0.228,7.282-0.099,14.576-0.099,22.871
			c-8.498-2.616-16.191-4.967-23.874-7.351c-25.052-7.772-50.1-15.553-75.148-23.338c-3.24-1.007-5.165-2.504-5.103-6.633
			c0.29-19.484,0.167-38.974,0.191-58.461c13.647,4.155,27.299,8.295,40.939,12.472c5.147,1.576,5.699,1.224,5.744-4.264
			c0.05-6.148-0.203-12.309,0.11-18.442c0.244-4.785-1.556-7.126-6.225-8.502C422.985,265.212,409.468,260.724,395.898,256.417z
			 M436.01,259.287l-0.021-0.012c3.343,1.006,6.687,2.012,10.03,3.018l-0.039-0.023c2.022,0.334,4.045,0.668,6.068,1.003
			c0.525,0.321,1.049,0.641,1.574,0.962c-1.353,1.095-2.707,2.19-4.06,3.285c0.249,0.39,0.499,0.78,0.748,1.17
			c3.23-2.134,6.461-4.268,9.691-6.402c0.678,0.314,1.355,0.627,2.032,0.942c0.023,1.369,0.046,2.739,0.068,4.108
			c3.288,1.528,6.577,3.056,10.513,4.885c0.2-3.039,0.295-4.479,0.389-5.919c1.536,0.176,3.072,0.353,4.966,0.57
			c0-3.422,0-6.488,0-9.554c-0.308-2.779-0.905-5.563-0.863-8.337c0.089-5.939,0.509-11.873,0.793-17.809
			c0.037-2.327,0.103-4.654,0.104-6.981c0.002-5.451-3.711-7.873-11.205-5.36c10.328,0.103,9.397,6.214,9.238,11.882
			c-0.005,0.166,0.017,0.332,0.027,0.498c-0.032,8.673-0.064,17.346-0.096,26.018c-1.192,2.222,2.569,6.604-3.015,6.91
			c-0.337-1.287-0.674-2.573-1.01-3.86c-0.047-7.009-0.095-14.018-0.142-21.026c0.362-4.273,0.954-8.543,1.016-12.821
			c0.054-3.739-1.026-4.092-4.836-2.098c-0.648,2.138-1.296,4.275-1.839,6.065c0.807,2.783,2.275,5.617,2.305,8.467
			c0.046,4.34-1.186,8.687-1.236,13.038c-0.013,1.111,2.38,2.25,3.67,3.376c0.056,1.666,0.113,3.332,0.169,4.999
			c-0.357,0.676-0.714,1.352-1.072,2.028c-0.662-0.328-1.323-0.657-1.985-0.985c-0.424-4.174-7.881-9.239-11.481-7.248
			c-1.447,0.8-5.373-0.937-4.51,3.202c-1.335,0.002-2.671,0.004-4.006,0.006l0.006,0.004c-0.668-0.66-1.337-1.321-2.005-1.981
			c1.563-2.534,0.892-4.142-1.774-5.503c-1.32-0.674-2.159-2.289-3.216-3.478c-0.334-1.354-0.668-2.708-1.003-4.062
			c1.059-0.356,2.117-0.711,3.173-1.066c1.892,0.338,3.785,0.677,5.677,1.015c1.713,1.426,3.427,2.853,5.14,4.279
			c-2.79-0.566-5.581-1.132-8.371-1.697c-0.234,0.806-0.468,1.613-0.701,2.419c3.841,1.354,7.673,2.738,11.563,3.931
			c0.136,0.042,0.857-1.823,1.305-2.799c0.562-1.65,1.533-3.291,1.571-4.953c0.038-1.632-0.871-3.287-1.365-4.932
			c-2.944,1.003-6.368-2.596-9.048,0.942c-0.649-0.363-1.297-0.725-1.946-1.088c0.999-1.378,1.998-2.757,2.996-4.135
			c2.655,0.027,5.311,0.054,7.966,0.081c0.516-0.428,1.032-0.856,1.548-1.285c-0.51,0.108-1.02,0.216-1.53,0.324
			c-1.327-0.711-2.653-1.423-3.98-2.134c-0.664-0.304-1.327-0.608-1.991-0.912c-2.677-0.969-5.354-1.938-8.031-2.907
			c0.015-0.387,0.03-0.773,0.045-1.16c1.841,0,3.682,0,5.523,0c0.111-0.556,0.221-1.113,0.332-1.669
			c-2.973-1.393-5.945-2.786-8.918-4.179c0.999-1.317,1.997-2.635,3.001-3.949c-5.894-2.222-7.372-1.69-7.966,2.87
			c-2.11,0.301-5.662-3.689-5.958,2.004c-1.326,0.674-2.652,1.348-3.98,2.022c-0.006-1.336-0.012-2.673-0.018-4.009
			c1.139-1.978,2.278-3.955,3.334-5.789c-0.339-0.549-0.874-1.415-1.409-2.281c-0.683-0.719-1.367-1.437-2.05-2.156
			c0.727-0.753,1.389-2.047,2.193-2.143c1.597-0.19,3.272,0.281,4.915,0.479c0.095-0.448,0.19-0.896,0.284-1.344
			c-2.788-1.031-5.576-2.062-9.068-3.354c-0.153,2.533-0.249,4.134-0.346,5.736c-1.693-0.319-3.386-0.638-5.937-1.119
			c0.43,4.344,0.807,8.144,1.183,11.943c0.004,8.353,0.008,16.706,0.013,25.058c-2.351,10.226-1.777,12.167,8.848,12.956
			C430.671,257.938,433.34,258.613,436.01,259.287z M481.164,296.096c0.065-7.846-6.735-15.324-13.978-15.372
			c-5.542-0.036-9.27,4.006-9.282,10.062c-0.014,7.454,6.786,14.861,13.847,15.083C477.389,306.048,481.114,302.18,481.164,296.096z
			 M410.98,327.147c-3.464-0.203-5.907,1.056-5.979,5.221c-0.097,5.659,5.275,11.862,10.4,11.951c4.181,0.073,6.618-2.267,6.57-6.31
			C421.904,332.249,416.923,327.217,410.98,327.147z M415.237,319.413c4.26,0.063,6.56-1.805,6.738-5.473
			c0.257-5.28-5.462-11.379-10.929-11.656c-3.6-0.183-5.988,2.33-6.038,6.354C404.943,313.982,410.025,319.335,415.237,319.413z
			 M427.681,309.233c-0.315,0.365-0.63,0.729-0.945,1.094c0.618,1.061,1.009,2.777,1.889,3.082
			c7.839,2.716,15.752,5.223,23.685,7.656c0.705,0.216,1.701-0.519,2.562-0.813c-0.438-0.94-0.668-2.499-1.345-2.726
			C444.95,314.651,436.307,311.967,427.681,309.233z M426.836,334.738c1.336,3.636,17.288,9.736,22.914,8.761
			C448.599,339.952,433.069,334.014,426.836,334.738z M442.19,349.768c-0.803-2.144-0.926-3.794-1.606-4.07
			c-3.947-1.602-8.009-2.937-12.084-4.193c-0.472-0.145-1.266,0.754-1.91,1.17c0.573,0.842,0.97,2.154,1.75,2.448
			C432.326,346.626,436.411,347.867,442.19,349.768z M441.447,323.614c-1.328-3.616-7.856-6.392-14.309-6.085
			C427.93,321.328,435.948,324.737,441.447,323.614z M460.55,330.989c-1.301-5.339-10.26-8.669-15.494-5.278
			C450.008,327.398,454.96,329.085,460.55,330.989z M436.763,207.207c-0.136,0.488-0.272,0.976-0.408,1.463
			c5.953,1.813,11.907,3.627,17.861,5.44c0.165-0.569,0.329-1.138,0.494-1.707C448.727,210.671,442.745,208.939,436.763,207.207z
			 M459.233,267.98c0-0.135,0-0.27-0.001-0.404c-0.494,0-0.989,0-1.483,0c0,0.135,0,0.27,0.001,0.404
			C458.244,267.98,458.738,267.98,459.233,267.98z"/>
		<path fill="#2E367B" d="M499.813,217.858c-22.991-7.076-45.978-14.162-68.973-21.225c-11.573-3.555-23.159-7.068-34.74-10.601
			c0-4.964,0-9.928,0-15.485c2.85,0.74,5.374,1.282,7.826,2.051c11.067,3.472,22.097,7.061,33.171,10.511
			c18.962,5.908,37.912,11.858,56.947,17.525c4.496,1.339,6.805,3.303,6.055,8.272C499.657,211.837,499.886,214.87,499.813,217.858z
			 M402.008,177.753c0.271,5.064,9.198,9.053,23.782,11.242c-1.163-2.028-1.621-4.085-2.676-4.46
			C416.338,182.127,409.431,180.088,402.008,177.753z"/>
		<path fill="#4D71B7" d="M406.976,200.296c0.329,7.128,0.682,14.255,0.936,21.385c0.017,0.466-0.636,1.248-1.122,1.392
			c-3.917,1.158-7.868,2.198-11.81,3.274c-0.033-7.361-0.065-14.722-0.098-22.084C398.912,202.941,402.944,201.618,406.976,200.296z
			"/>
		<path fill="#5376BA" d="M461.196,178.296c-8.322-2.533-16.68-4.957-24.919-7.737c-1.046-0.353-1.462-2.572-2.17-3.927
			c1.279-0.242,2.698-0.969,3.815-0.648c6.83,1.964,13.65,4.002,20.336,6.401c1.714,0.615,2.931,2.617,4.376,3.982
			C462.155,177.01,461.676,177.653,461.196,178.296z"/>
		<path fill="#5376BA" d="M410.935,159.399c-1.827,1.615-3.415,3.421-3.721,3.225c-1.785-1.144-3.388-2.662-4.716-4.323
			c-0.183-0.228,1.961-2.954,2.253-2.821C406.674,156.353,408.384,157.695,410.935,159.399z"/>
		<path fill="#CFEAF3" d="M556.849,399.256c-0.455-1.713-0.911-3.426-1.494-5.623c-5.501-0.741-11.305-1.523-17.109-2.306
			c5.125-12.782,10.249-25.565,15.374-38.347c0.417,0.113,0.835,0.226,1.252,0.339C555.531,368.631,556.19,383.943,556.849,399.256z
			"/>
		<path fill="#4D71B7" d="M269.985,383.342c-0.661-3.975-1.322-7.949-1.982-11.924c0.307-0.145,0.613-0.29,0.92-0.434
			c1.372-0.214,2.744-0.427,4.116-0.641c0.987-0.07,1.973-0.141,2.96-0.211c9.313-0.936,18.625-1.872,27.938-2.807
			c-1.604,2.857-2.544,6.571-4.93,8.416C290.538,382.289,280.574,384.283,269.985,383.342z"/>
		<path fill="#EDA58A" d="M303.937,367.324c-9.313,0.936-18.625,1.872-27.938,2.808c-0.611-1.206-1.222-2.413-2.128-4.2
			c-1.135,0-2.936,0-4.736,0c0.067,0.112,0.135,0.224,0.202,0.336c6.21-1.29,12.419-2.58,18.629-3.87
			c1.349-0.015,2.699-0.03,4.048-0.045c1.002-0.025,2.003-0.05,3.005-0.075c2.146-0.518,4.292-1.036,6.44-1.551
			c2.456-0.177,4.911-0.356,7.364-0.534c2.036,0.703,4.073,1.406,6.11,2.11C311.268,363.976,307.602,365.65,303.937,367.324z"/>
		<path fill="#262868" d="M326.776,381.847c-7.207,2.563-11.78,10.906-21.415,8.174c6.867-3.316,13.735-6.632,20.602-9.948
			C326.233,380.664,326.504,381.256,326.776,381.847z"/>
		<path fill="#2B347A" d="M395.898,256.417c13.57,4.306,27.086,8.795,40.74,12.818c4.668,1.376,6.469,3.717,6.225,8.502
			c-0.313,6.133-0.06,12.294-0.11,18.442c-0.045,5.487-0.597,5.84-5.744,4.264c-13.64-4.176-27.291-8.316-40.939-12.472
			c-1.371-0.473-2.742-0.946-4.112-1.418c-9.929-3.113-19.795-6.452-29.815-9.239c-4.632-1.289-6.812-3.609-6.305-8.373
			c0.496-0.83,1.157-1.611,1.408-2.507c0.098-0.352-0.721-0.961-1.123-1.455c-0.001-6.434-0.001-12.867-0.001-20.207
			c12.465,3.642,24.14,7.052,35.814,10.463C393.257,255.63,394.577,256.024,395.898,256.417z M381.835,278.39
			c0-6.806,0.061-12.533-0.07-18.256c-0.018-0.803-0.811-2.058-1.52-2.302c-6.03-2.07-12.123-3.954-19.069-6.172
			c0,6.777-0.084,12.515,0.085,18.246c0.027,0.918,1.004,2.333,1.847,2.619C368.983,274.513,374.938,276.264,381.835,278.39z
			 M386.477,271.433c9.502,5.599,20.365,7.424,31.113,11.45C416.673,278.281,393.539,269.934,386.477,271.433z M386.469,264.476
			c6.371,4.893,14.197,5.69,22.091,8.435C407.104,268.487,392.857,263.13,386.469,264.476z M385.743,276.622
			c2.882,4.673,12.625,7.996,17.792,6.491C398.319,278.782,392.495,278.186,385.743,276.622z"/>
		<path fill="#A3DBEB" d="M356.009,298.833c0.002-3.488,0.036-6.976-0.008-10.463c-0.042-3.294,1.413-4.704,4.658-3.693
			c7.373,2.296,14.836,4.379,22.003,7.206c1.917,0.756,3.95,3.8,4.117,5.936c0.53,6.768,0.135,13.604,0.237,20.412
			c0.052,3.438-1.892,4.759-4.72,3.944c-7.746-2.232-15.478-4.606-22.976-7.535c-1.618-0.632-2.827-3.731-3.175-5.865
			C355.617,305.54,356.007,302.155,356.009,298.833z M371.513,310.164c-0.552,0.194-1.104,0.387-1.656,0.581
			c-0.253-0.354-0.462-0.751-0.765-1.054c-1.132-1.129-2.151-2.782-3.5-3.133c-0.843-0.22-3.256,1.78-3.123,2.366
			c0.346,1.525,1.422,3.571,2.719,4.065c3.778,1.44,7.772,2.408,11.759,3.145c1.123,0.207,2.935-0.718,3.632-1.695
			c0.483-0.677-0.008-2.877-0.766-3.421c-1.152-0.827-2.904-1.011-4.415-1.065c-0.76-0.027-1.552,0.833-3.816,2.171
			c0.818-2.925,1.011-4.542,1.717-5.889c0.748-1.428,2.213-2.481,2.961-3.909c1.754-3.352,0.506-6.403-2.281-8.238
			c-1.58-1.041-4.948-1.617-6.055-0.681c-2.635,2.229-2.733,5.476-0.22,8.362c0.537,0.617,1.031,1.323,1.346,2.071
			C369.926,305.924,370.698,308.053,371.513,310.164z"/>
		<path fill="#2B347A" d="M502.184,356.079c-8.346-2.644-16.658-5.401-25.053-7.88c-3.694-1.091-5.483-2.841-5.323-7.01
			c0.311-8.087,0.091-16.195,0.091-25.375c9.946,2.938,19.044,5.626,28.143,8.314c1.279,0.397,2.559,0.795,3.838,1.192
			c4.056,1.326,8.111,2.651,12.167,3.977c1.235,1.529,3.16,2.904,3.546,4.624c0.591,2.634,0.12,5.506,0.1,8.277
			c-0.344,5.872-0.688,11.743-1.071,18.275c-2.155-0.457-4.295-0.911-6.433-1.364c-2.767-0.882-5.535-1.765-8.303-2.648
			C503.318,356.333,502.751,356.206,502.184,356.079z M495.07,347.824c0-6.228,0.149-11.329-0.118-16.408
			c-0.058-1.097-1.406-2.645-2.514-3.076c-4.154-1.616-8.409-3.045-12.737-4.087c-0.958-0.231-3.32,1.317-3.403,2.198
			c-0.37,3.941-0.398,7.962-0.015,11.901c0.149,1.532,1.389,3.73,2.681,4.243C483.825,344.526,488.913,345.887,495.07,347.824z"/>
		<path fill="#66B2E3" d="M441.696,370.653c4.992,2.139,9.728,3.991,14.26,6.253c0.956,0.477,1.163,2.453,1.716,3.739
			c-1.449,0.505-3.065,1.695-4.317,1.391c-4.174-1.014-8.352-2.273-12.239-4.065c-1.382-0.637-2.229-2.992-2.684-4.729
			C438.3,372.74,440.381,371.659,441.696,370.653z"/>
		<path fill="#F5F7F9" d="M510.885,269.048c7.97,3.972,15.94,7.944,23.909,11.913c2.867,1.993,5.735,3.989,9.426,6.559
			c-0.079,1.205-0.228,3.483-0.378,5.761c-9.101-2.425-18.204-4.84-27.299-7.285c-1.899-0.51-3.769-1.131-5.652-1.7
			C510.888,279.213,510.887,274.13,510.885,269.048z"/>
		<path fill="#4A6BB3" d="M565.678,319.236c-4.197-2.102-8.393-4.204-12.235-6.128c0.061,0.275,0.328,1.479,0.732,3.295
			c-1.718-0.366-2.936-0.625-4.153-0.887c0.005-4.155-0.274-8.339,0.174-12.444c0.145-1.324,2.195-2.445,3.393-3.641
			c0.084-0.084,0.322-0.018,0.488-0.015c14.105,0.249,11.587-1.782,11.779,11.356C565.896,313.593,565.742,316.415,565.678,319.236z
			"/>
		<path fill="#EBECF2" d="M575.127,303.278c2.992,5.655,5.983,11.309,9.695,18.326c-3.902-0.517-6.374-0.844-8.846-1.171
			C575.693,314.715,575.41,308.996,575.127,303.278z"/>
		<path fill="#66B2E3" d="M548.083,206.232c-6.968-2.212-13.009-4.045-18.958-6.139c-0.648-0.228-1.061-1.957-1.08-3
			c-0.103-5.468,0.035-10.941-0.075-16.409c-0.06-3.006,1.326-3.949,3.994-3.175c4.599,1.334,9.196,2.7,13.703,4.307
			c0.999,0.356,2.282,1.753,2.31,2.704C548.176,191.265,548.083,198.02,548.083,206.232z M538.881,191.137
			c-1.607-2.157-3.431-4.604-5.255-7.051c-0.627,0.43-1.254,0.859-1.881,1.289c1.795,3.412,3.404,6.944,5.491,10.166
			c0.689,1.064,3.571,2.121,3.812,1.829c1.426-1.728,2.37-3.854,3.476-5.846C542.816,191.406,541.108,191.289,538.881,191.137z"/>
		<path fill="#F2AA8E" d="M287.966,362.398c-6.21,1.29-12.419,2.58-18.629,3.87c-0.067-0.112-0.135-0.224-0.202-0.336
			c1.801,0,3.601,0,4.736,0c0.905,1.787,1.516,2.994,2.128,4.2c-0.987,0.07-1.973,0.141-2.96,0.211
			c-2.047-0.606-4.095-1.213-6.143-1.819c-0.081,0.264-0.163,0.528-0.244,0.792c0.757,0.556,1.513,1.112,2.27,1.668
			c-0.306,0.145-0.613,0.289-0.92,0.434c-7.265-0.217-9.537-1.952-8.924-9.076c1.012-11.75,2.878-23.426,4.387-35.133
			c0.322,0.086,0.569,0.262,0.744,0.529c1.278,2.233,2.65,4.419,3.808,6.712c1.128,2.232,2.038,4.574,3.043,6.868
			c-1.127,6.651-2.253,13.301-3.38,19.952c-1.378-0.461-2.756-0.923-4.552-1.524c0.711,2.938,1.267,5.239,1.917,7.929
			c1.557-2.167,2.414-3.36,3.271-4.552C274.867,362.881,281.416,362.639,287.966,362.398z"/>
		<path fill="#F5F7F9" d="M275.751,410.087c-3.585,1.455-7.171,2.909-10.756,4.364c-0.37-0.293-0.741-0.587-1.111-0.88
			c1.567-3.357,3.133-6.714,4.7-10.071c0.612-0.504,1.224-1.008,1.836-1.511c1.121,2.968,2.243,5.935,3.364,8.903
			C274.439,410.623,275.095,410.355,275.751,410.087z"/>
		<path fill="#CFEAF3" d="M291.883,411.206c0.698,3.781,1.395,7.563,2.093,11.344c-0.386,0.23-0.773,0.46-1.159,0.69
			c-2.969-3.613-5.939-7.227-8.908-10.842C286.568,412,289.225,411.603,291.883,411.206z"/>
		<path fill="#F5F7F9" d="M291.883,411.206c-2.658,0.397-5.316,0.794-7.974,1.193c-0.315-0.985-0.628-1.972-0.942-2.958
			c2.681-0.389,5.362-0.777,8.043-1.166c0.29,0.354,0.581,0.708,0.871,1.063C291.882,409.96,291.882,410.583,291.883,411.206z"/>
		<path fill="#CFEAF3" d="M291.881,409.337c-0.29-0.354-0.581-0.708-0.871-1.063C291.301,408.629,291.591,408.983,291.881,409.337z"
			/>
		<path fill="#EDA58A" d="M271.062,341.318c-1.006-2.294-1.915-4.636-3.043-6.868c-1.159-2.293-2.53-4.478-3.808-6.712
			c3.195,0.726,6.389,1.454,10.135,2.307C273.247,333.813,272.155,337.566,271.062,341.318z"/>
		<path fill="#EDA58A" d="M268.318,363.123c-0.857,1.192-1.714,2.385-3.271,4.552c-0.651-2.69-1.207-4.991-1.917-7.929
			c1.796,0.601,3.174,1.063,4.552,1.524C267.894,361.888,268.106,362.506,268.318,363.123z"/>
		<path fill="#F2AA8E" d="M295.019,362.278c-1.002,0.025-2.003,0.05-3.005,0.075C293.016,362.327,294.017,362.303,295.019,362.278z"
			/>
		<path fill="#5376BA" d="M510.885,269.048c0.002,5.083,0.004,10.165,0.005,15.247c0.059,8.266,0.118,16.531,0.178,24.798
			c-0.03,3.434,0.244,6.905-0.167,10.292c-0.532,4.385,0.923,7.328,4.967,9.023c0.07,0.294,0.129,0.59,0.179,0.889
			c-4.056-1.326-8.111-2.651-12.166-3.977c0.061-2.143,0.162-4.286,0.174-6.43c0.106-19.341,0.196-38.683,0.291-58.024
			C506.526,263.593,508.705,266.321,510.885,269.048z"/>
		<path fill="#66B2E3" d="M516.047,329.297c-0.05-0.298-0.109-0.594-0.178-0.89c0.009-5.994,0.017-11.986,0.025-17.979
			c0.331,0.019,0.686-0.033,0.991,0.066c12.795,4.165,11.01,2.063,11.133,14.708c0.042,4.328,0.012,8.656-0.001,12.984
			c-0.019,6.42-0.479,6.758-6.479,4.776c-0.63-0.208-1.229-0.51-1.843-0.767c0.018-2.77,0.489-5.642-0.102-8.276
			C519.207,332.201,517.282,330.826,516.047,329.297z"/>
		<path fill="#5A98D2" d="M515.894,310.429c-0.008,5.993-0.016,11.985-0.025,17.979c-4.045-1.694-5.5-4.637-4.968-9.022
			c0.411-3.387,0.137-6.858,0.167-10.292C512.676,309.538,514.285,309.983,515.894,310.429z"/>
		<path fill="#F5F7F9" d="M383.151,168.79c-7.757-2.446-14.577-4.546-21.343-6.812c-0.638-0.214-1.2-1.448-1.259-2.249
			c-0.029-0.387,1.353-1.376,1.822-1.228c6.599,2.095,13.167,4.295,19.683,6.635C382.537,165.311,382.568,166.744,383.151,168.79z"
			/>
		<path fill="#F5F7F9" d="M359.83,164.665c5.298,1.98,9.741,3.595,14.106,5.399c0.235,0.097,0.142,2.343-0.36,2.64
			C371.192,174.114,361.379,169.11,359.83,164.665z"/>
		<path fill="#F6E6ED" d="M348.022,235.939c-8.327,0.976-22.273-4.783-22.634-8.866
			C333.267,229.825,341.435,230.959,348.022,235.939z"/>
		<path fill="#F6E6ED" d="M314.151,216.947c7.922-0.041,14.273,3.045,14.263,6.712C320.904,223.041,315.781,220.743,314.151,216.947
			z"/>
		<path fill="#F6E6ED" d="M333.173,222.862c8.131,0.257,14.174,3.164,14.424,6.741C340.415,229.282,334.501,226.65,333.173,222.862z
			"/>
		<path fill="#A0DCED" d="M504.346,260.866c-0.095,19.341-0.185,38.683-0.291,58.024c-0.012,2.144-0.113,4.287-0.174,6.43
			c-1.281-0.397-2.56-0.794-3.839-1.192c0.035-23.688,0.07-47.376,0.105-71.065C501.547,255.664,502.947,258.265,504.346,260.866z"
			/>
		<path fill="#DADCE9" d="M384.65,220.813c-1.784-3.717-3.528-6.803-4.713-10.09c-0.477-1.323-0.28-3.794,0.597-4.478
			c1.167-0.91,3.462-1.138,4.981-0.683c4.289,1.283,5.882,6.441,3.337,10.082C387.743,217.23,386.412,218.662,384.65,220.813z"/>
		<path fill="#2E367B" d="M312.988,450.129c-0.366-0.557-0.853-1.009-0.764-1.223c0.187-0.45,0.675-0.774,1.04-1.15
			c0.191,0.391,0.54,0.787,0.526,1.171C313.778,449.268,313.365,449.595,312.988,450.129z"/>
		<path fill="#2E367B" d="M318.585,448.003c-0.12,0.281-0.24,0.561-0.36,0.84c-0.279-0.121-0.717-0.18-0.794-0.38
			c-0.079-0.203,0.196-0.544,0.316-0.824C318.026,447.76,318.305,447.881,318.585,448.003z"/>
		<path fill="#66B2E3" d="M444.024,226.186c-0.015,0.387-0.03,0.773-0.045,1.159c-4.529-0.99-9.059-1.979-13.588-2.969
			c-0.186,0.638-0.371,1.276-0.557,1.914c1.332,0.663,2.619,1.447,4.005,1.968c5.369,2.019,10.77,3.954,16.159,5.921
			c-0.999,1.378-1.998,2.757-2.996,4.135c-5.449-1.563-10.898-3.126-16.346-4.689c-0.307,0.475-0.615,0.95-0.922,1.425
			c1.086,0.879,2.044,2.074,3.283,2.576c3.324,1.348,6.767,2.399,10.163,3.569c-1.059,0.356-2.117,0.711-3.176,1.067
			c-3.121-0.856-6.242-1.712-9.363-2.567c-0.282,0.376-0.565,0.751-0.847,1.127c0.905,0.901,1.654,2.172,2.745,2.631
			c2.74,1.153,5.634,1.938,8.467,2.871c1.057,1.189,1.896,2.804,3.216,3.478c2.665,1.361,3.337,2.969,1.774,5.503
			c-1.668-0.01-3.336-0.02-5.004-0.029c0,0,0.017,0.01,0.017,0.01c-2.687-1.324-5.374-2.647-8.061-3.97
			c-6.487-0.451-7.667-4.583-6.953-10.028c0.022-6.001,0.044-12.001,0.066-18.002c1.326-0.674,2.652-1.348,3.978-2.022
			C434.7,222.904,439.362,224.545,444.024,226.186z"/>
		<path fill="#2E367B" d="M481.164,296.096c-0.051,6.084-3.775,9.952-9.413,9.774c-7.061-0.222-13.861-7.629-13.847-15.083
			c0.011-6.056,3.74-10.098,9.282-10.062C474.43,280.771,481.23,288.25,481.164,296.096z M462.12,286.075
			c2.473,5.216,4.357,9.519,6.669,13.58c0.243,0.426,3.536-0.072,4.468-1.046c1.303-1.362,1.716-3.575,2.509-5.423
			c-0.865-0.128-1.863-0.587-2.565-0.306c-1.017,0.406-1.819,1.347-2.485,1.878C467.544,292.579,468.905,286.627,462.12,286.075z"/>
		<path fill="#66B2E3" d="M459.999,262.287c-3.23,2.134-6.461,4.268-9.691,6.402c-0.249-0.39-0.499-0.78-0.748-1.17
			c1.354-1.095,2.707-2.19,4.06-3.285c-0.525-0.321-1.049-0.641-1.574-0.961c-2.023-0.334-4.045-0.668-6.067-1.003
			c0,0,0.039,0.023,0.039,0.023c-3.343-1.006-6.687-2.012-10.03-3.018c0,0,0.021,0.012,0.021,0.012
			c-2.658-1.004-5.316-2.009-7.974-3.013c-5.116-1.481-8.329-4.306-7.391-10.21c0.085-0.532-0.494-1.169-0.764-1.758
			c0.02-8.35,0.039-16.7,0.058-25.05c0-2.887,0-5.774,0-8.049c3.278,0,5.653,0,8.027,0c0.535,0.866,1.07,1.732,1.409,2.281
			c-1.056,1.833-2.195,3.811-3.335,5.789c0-1.824,0-3.649,0-5.473c-0.678,0.01-1.355,0.019-2.033,0.029c0,9.152,0,18.305,0,27.457
			c-0.184,11.153,0.358,11.875,8.992,11.991c2.67,0.668,5.339,1.336,8.009,2.005c0,0-0.017-0.01-0.017-0.01
			c2.336,0.67,4.672,1.341,7.009,2.011c0,0-0.006-0.004-0.006-0.004C451.996,258.951,455.997,260.619,459.999,262.287z"/>
		<path fill="#4D71B7" d="M410.98,327.147c5.943,0.07,10.923,5.101,10.992,10.862c0.048,4.042-2.389,6.382-6.57,6.31
			c-5.126-0.089-10.497-6.292-10.4-11.951C405.073,328.203,407.516,326.944,410.98,327.147z"/>
		<path fill="#4D71B7" d="M415.237,319.413c-5.212-0.077-10.294-5.431-10.228-10.776c0.049-4.023,2.437-6.536,6.038-6.354
			c5.467,0.277,11.186,6.376,10.929,11.656C421.797,317.608,419.497,319.476,415.237,319.413z"/>
		<path fill="#EAF3F6" d="M427.681,309.233c8.626,2.733,17.268,5.418,25.846,8.294c0.677,0.227,0.907,1.786,1.345,2.726
			c-0.861,0.293-1.857,1.029-2.562,0.813c-7.933-2.434-15.846-4.94-23.685-7.656c-0.88-0.305-1.271-2.021-1.889-3.082
			C427.052,309.963,427.367,309.598,427.681,309.233z"/>
		<path fill="#92D7EE" d="M449.997,234.179c-5.389-1.967-10.79-3.902-16.159-5.921c-1.386-0.521-2.672-1.305-4.005-1.968
			c0.186-0.638,0.371-1.276,0.557-1.914c4.53,0.989,9.059,1.979,13.588,2.969c2.677,0.97,5.354,1.939,8.031,2.908
			c0.664,0.304,1.327,0.608,1.991,0.912c1.327,0.711,2.653,1.423,3.98,2.134c-0.006,0.32-0.012,0.641-0.018,0.961
			C455.308,234.234,452.653,234.206,449.997,234.179z"/>
		<path fill="#66B2E3" d="M470.876,255.281c-1.288-1.126-3.681-2.265-3.668-3.376c0.049-4.351,1.281-8.698,1.236-13.038
			c-0.03-2.849-1.498-5.684-2.305-8.467c0.543-1.79,1.191-3.928,1.839-6.065c0.699,1.142,1.827,2.217,2.018,3.439
			c0.599,3.819,0.844,7.693,1.226,11.545c0,0-0.346-0.053-0.346-0.053c-0.111,0.1-0.333,0.231-0.315,0.295
			c0.068,0.242,0.213,0.462,0.329,0.691C470.886,245.261,470.881,250.271,470.876,255.281z"/>
		<path fill="#EAF3F6" d="M426.836,334.738c6.234-0.724,21.763,5.214,22.914,8.761C444.124,344.473,428.171,338.374,426.836,334.738
			z"/>
		<path fill="#66B2E3" d="M448.947,239.402c2.681-3.538,6.104,0.061,9.048-0.942c0.494,1.645,1.403,3.299,1.365,4.932
			c-0.038,1.662-1.009,3.303-1.57,4.952c-1.265-0.618-2.531-1.236-3.798-1.854c-1.713-1.426-3.427-2.853-5.139-4.278
			C448.885,241.276,448.916,240.339,448.947,239.402z"/>
		<path fill="#92D7EE" d="M444.024,226.186c-4.662-1.641-9.324-3.281-13.986-4.922c0.297-5.693,3.849-1.703,5.959-2.004
			c1.655,0.36,3.31,0.719,4.965,1.079c2.973,1.393,5.945,2.786,8.918,4.179c-0.111,0.556-0.221,1.113-0.332,1.669
			C447.706,226.186,445.865,226.186,444.024,226.186z"/>
		<path fill="#E1EFF5" d="M448.947,239.402c-0.031,0.937-0.061,1.874-0.093,2.81c-1.893-0.339-3.785-0.677-5.676-1.016
			c-3.395-1.17-6.838-2.221-10.162-3.569c-1.239-0.502-2.197-1.697-3.283-2.576c0.307-0.475,0.615-0.95,0.922-1.425
			c5.449,1.563,10.898,3.126,16.346,4.689C447.65,238.677,448.298,239.04,448.947,239.402z"/>
		<path fill="#EAF3F6" d="M442.19,349.768c-5.779-1.901-9.864-3.142-13.85-4.646c-0.78-0.294-1.176-1.606-1.75-2.448
			c0.645-0.415,1.439-1.315,1.91-1.17c4.075,1.256,8.136,2.591,12.084,4.193C441.264,345.974,441.387,347.624,442.19,349.768z"/>
		<path fill="#EAF3F6" d="M441.447,323.614c-5.5,1.123-13.518-2.287-14.309-6.085C433.592,317.222,440.12,319.998,441.447,323.614z"
			/>
		<path fill="#EAF3F6" d="M460.55,330.989c-5.59-1.904-10.542-3.591-15.494-5.278C450.29,322.321,459.249,325.65,460.55,330.989z"/>
		<path fill="#5A98D2" d="M424.008,241.289c0-9.152,0-18.305,0-27.457c0.678-0.01,1.355-0.019,2.033-0.029c0,1.824,0,3.649,0,5.473
			c0.006,1.336,0.012,2.673,0.019,4.009c-0.021,6.001-0.043,12.001-0.065,18.002C425.332,241.288,424.67,241.289,424.008,241.289z"
			/>
		<path fill="#66B2E3" d="M452,257.276c-0.863-4.139,3.063-2.401,4.51-3.202c3.599-1.991,11.057,3.074,11.481,7.247
			c-1.997-0.346-3.994-0.692-5.991-1.038c-0.82-4.612-3.455-4.9-7.029-2.95C453.981,257.315,452.99,257.296,452,257.276z"/>
		<path fill="#5A98D2" d="M462,260.284c1.997,0.346,3.994,0.692,5.991,1.038c0.662,0.329,1.323,0.657,1.985,0.985
			c0.012,1,0.024,2,0.035,3c-2.66-0.693-5.32-1.387-7.979-2.08c-0.678-0.314-1.355-0.627-2.033-0.941
			c-4.002-1.668-8.003-3.337-12.005-5.005c1.335-0.002,2.671-0.004,4.006-0.006c0.99,0.019,1.981,0.039,2.971,0.058
			C457.315,258.317,459.657,259.301,462,260.284z"/>
		<path fill="#E1EFF5" d="M453.993,246.491c1.266,0.618,2.533,1.236,3.798,1.854c-0.45,0.976-1.171,2.841-1.307,2.799
			c-3.89-1.193-7.722-2.578-11.563-3.931c0.234-0.806,0.468-1.613,0.701-2.419C448.412,245.359,451.202,245.925,453.993,246.491z"/>
		<path fill="#D2EBF3" d="M470.011,265.308c-0.012-1-0.023-2-0.035-3c0.357-0.676,0.714-1.352,1.071-2.028
			c0.298,0.001,0.595,0.001,0.893,0.001c0.337,1.287,0.674,2.573,1.01,3.861c0.017,0.721,0.034,1.442,0.051,2.162
			c-0.095,1.44-0.19,2.88-0.39,5.919c-3.936-1.829-7.225-3.357-10.514-4.885c1.908,0.146,3.85,0.556,5.709,0.318
			C468.629,267.549,469.282,266.13,470.011,265.308z"/>
		<path fill="#E1EFF5" d="M419.88,244.307c0.271,0.588,0.85,1.226,0.765,1.758c-0.938,5.904,2.275,8.729,7.39,10.21
			c-0.031,0.329-0.042,0.658-0.034,0.989c-10.625-0.789-11.199-2.73-8.849-12.956c-0.001,0,0.364-0.006,0.364-0.006L419.88,244.307z
			"/>
		<path fill="#E1EFF5" d="M441.005,246.324c-2.833-0.933-5.727-1.718-8.467-2.871c-1.091-0.459-1.84-1.73-2.745-2.631
			c0.282-0.376,0.565-0.751,0.847-1.127c3.121,0.856,6.242,1.712,9.363,2.567C440.337,243.616,440.671,244.97,441.005,246.324z"/>
		<path fill="#E1EFF5" d="M471.222,239.318c-0.382-3.853-0.627-7.727-1.226-11.545c-0.191-1.222-1.319-2.297-2.018-3.439
			c3.81-1.994,4.89-1.64,4.836,2.099c-0.062,4.278-0.654,8.547-1.014,12.821C471.606,239.265,471.414,239.287,471.222,239.318z"/>
		<path fill="#EAF3F6" d="M427.966,211.207c-2.374,0-4.749,0-8.027,0c0,2.275,0,5.162,0,8.05c-0.266,0.004-0.533,0.001-0.8-0.008
			c-0.376-3.799-0.753-7.599-1.183-11.943c2.551,0.481,4.244,0.8,5.937,1.119c0.674,0.209,1.348,0.418,2.022,0.627
			C426.599,209.769,427.283,210.488,427.966,211.207z"/>
		<path fill="#5376BA" d="M476.061,231.211c-0.009-0.166-0.031-0.332-0.027-0.498c0.159-5.668,1.091-11.779-9.238-11.882
			c7.495-2.513,11.207-0.091,11.205,5.36c-0.001,2.327-0.067,4.654-0.103,6.982C477.286,231.187,476.673,231.199,476.061,231.211z"
			/>
		<path fill="#5A98D2" d="M436.763,207.207c5.982,1.732,11.964,3.464,17.946,5.197c-0.165,0.569-0.329,1.138-0.494,1.707
			c-5.954-1.813-11.907-3.627-17.861-5.44C436.491,208.182,436.627,207.695,436.763,207.207z"/>
		<path fill="#5A98D2" d="M476.061,231.211c0.613-0.012,1.226-0.024,1.838-0.037c-0.285,5.935-0.705,11.869-0.794,17.808
			c-0.042,2.774,0.556,5.558,0.864,8.336c-0.668-0.03-1.335-0.059-2.003-0.088C475.997,248.557,476.029,239.884,476.061,231.211z"/>
		<path fill="#66B2E3" d="M470.011,265.308c-0.729,0.823-1.382,2.241-2.203,2.347c-1.859,0.238-3.801-0.172-5.709-0.318
			c-0.022-1.369-0.045-2.738-0.068-4.108C464.691,263.921,467.351,264.615,470.011,265.308z"/>
		<path fill="#66B2E3" d="M440.962,220.338c-1.655-0.359-3.31-0.719-4.965-1.079c0.594-4.56,2.072-5.092,7.963-2.872
			C442.959,217.704,441.96,219.021,440.962,220.338z"/>
		<path fill="#5376BA" d="M425.916,209.051c-0.674-0.209-1.348-0.418-2.022-0.627c0.097-1.601,0.193-3.202,0.346-5.735
			c3.492,1.292,6.28,2.323,9.068,3.354c-0.095,0.448-0.19,0.896-0.284,1.344c-1.643-0.198-3.318-0.669-4.915-0.479
			C427.304,207.004,426.642,208.298,425.916,209.051z"/>
		<path fill="#5376BA" d="M475.965,257.23c0.668,0.029,1.336,0.059,2.003,0.088c0,3.066,0,6.133,0,9.555
			c-1.894-0.217-3.43-0.394-4.966-0.57c-0.017-0.72-0.034-1.44-0.051-2.162C478.534,263.834,474.773,259.452,475.965,257.23z"/>
		<path fill="#CFEAF3" d="M419.14,219.248c0.267,0.009,0.533,0.012,0.8,0.008c-0.02,8.35-0.039,16.7-0.059,25.05
			c-0.001,0-0.365-0.006-0.365-0.006s-0.365,0.006-0.364,0.006C419.149,235.954,419.144,227.601,419.14,219.248z"/>
		<path fill="#D2ECF5" d="M471.222,239.318c0.192-0.032,0.385-0.053,0.578-0.065c0.046,7.009,0.094,14.018,0.141,21.026
			c-0.298,0-0.596,0-0.893-0.001c-0.056-1.666-0.113-3.332-0.17-4.999c0.004-5.01,0.009-10.019,0.014-15.029
			c0.075-0.33,0.07-0.659-0.015-0.986L471.222,239.318z"/>
		<path fill="#A0DCED" d="M435.989,259.275c3.343,1.006,6.687,2.012,10.03,3.018C442.675,261.287,439.332,260.281,435.989,259.275z"
			/>
		<path fill="#5A98D2" d="M448,257.286c-2.336-0.67-4.672-1.341-7.009-2.011c1.668,0.01,3.336,0.019,5.004,0.029
			C446.663,255.965,447.332,256.626,448,257.286z"/>
		<path fill="#A0DCED" d="M428.001,257.263c-0.008-0.33,0.004-0.66,0.034-0.989c2.658,1.004,5.316,2.009,7.974,3.013
			C433.34,258.613,430.671,257.938,428.001,257.263z"/>
		<path fill="#A0DCED" d="M445.979,262.27c2.022,0.334,4.044,0.668,6.067,1.003C450.024,262.938,448.002,262.604,445.979,262.27z"/>
		<path fill="#66B2E3" d="M454.001,231.165c-0.664-0.304-1.327-0.608-1.991-0.912C452.674,230.557,453.338,230.861,454.001,231.165z
			"/>
		<path fill="#66B2E3" d="M457.964,234.261c0.005-0.32,0.011-0.641,0.018-0.961c0.51-0.108,1.02-0.216,1.53-0.324
			C458.996,233.404,458.48,233.832,457.964,234.261z"/>
		<path fill="#66B2E3" d="M459.233,267.98c-0.494,0-0.989,0-1.483,0c0-0.135,0-0.27-0.001-0.404c0.494,0,0.989,0,1.483,0
			C459.232,267.711,459.232,267.846,459.233,267.98z"/>
		<path fill="#EBECF2" d="M402.008,177.753c7.422,2.335,14.33,4.374,21.106,6.782c1.055,0.375,1.513,2.432,2.676,4.46
			C411.206,186.805,402.279,182.817,402.008,177.753z"/>
		<path fill="#EDA58A" d="M268.923,370.984c-0.757-0.556-1.513-1.112-2.27-1.668c0.081-0.264,0.162-0.528,0.244-0.792
			c2.048,0.606,4.095,1.213,6.143,1.819C271.667,370.557,270.295,370.77,268.923,370.984z"/>
		<path fill="#65B0E1" d="M381.835,278.39c-6.897-2.125-12.852-3.877-18.727-5.865c-0.843-0.285-1.82-1.7-1.847-2.619
			c-0.169-5.731-0.085-11.469-0.085-18.246c6.946,2.218,13.039,4.102,19.069,6.172c0.71,0.244,1.502,1.499,1.52,2.302
			C381.896,265.857,381.835,271.584,381.835,278.39z"/>
		<path fill="#8FC7E3" d="M386.477,271.433c7.062-1.498,30.196,6.848,31.113,11.45C406.843,278.857,395.979,277.032,386.477,271.433
			z"/>
		<path fill="#8FC7E3" d="M386.469,264.476c6.387-1.345,20.635,4.012,22.091,8.435C400.666,270.165,392.84,269.369,386.469,264.476z
			"/>
		<path fill="#8FC7E3" d="M385.743,276.622c6.752,1.564,12.575,2.159,17.792,6.491C398.368,284.619,388.625,281.295,385.743,276.622
			z"/>
		<path fill="#CFEAF3" d="M371.513,310.164c-0.814-2.111-1.587-4.24-2.464-6.325c-0.315-0.749-0.809-1.455-1.346-2.071
			c-2.513-2.886-2.415-6.133,0.22-8.362c1.106-0.936,4.474-0.36,6.055,0.681c2.787,1.836,4.034,4.887,2.281,8.238
			c-0.747,1.428-2.212,2.481-2.961,3.909c-0.706,1.348-0.899,2.964-1.717,5.889c2.264-1.337,3.056-2.198,3.816-2.171
			c1.511,0.054,3.263,0.238,4.415,1.065c0.757,0.544,1.249,2.744,0.766,3.421c-0.697,0.976-2.509,1.902-3.632,1.695
			c-3.986-0.736-7.981-1.705-11.759-3.145c-1.297-0.494-2.372-2.54-2.719-4.065c-0.133-0.586,2.28-2.585,3.123-2.366
			c1.349,0.351,2.368,2.004,3.5,3.133c0.304,0.303,0.513,0.7,0.765,1.054C370.408,310.551,370.961,310.358,371.513,310.164z"/>
		<path fill="#4A6BB3" d="M495.07,347.824c-6.157-1.937-11.245-3.298-16.106-5.228c-1.292-0.513-2.532-2.71-2.681-4.243
			c-0.383-3.94-0.354-7.96,0.015-11.901c0.083-0.882,2.444-2.429,3.403-2.198c4.327,1.042,8.582,2.471,12.737,4.087
			c1.108,0.431,2.456,1.979,2.514,3.076C495.219,336.495,495.07,341.597,495.07,347.824z M484.904,336.32c0,0.636,0,1.273,0,1.225
			c-1.779,0.24-3.231,0.436-4.683,0.632c0.201,0.905,0.125,2.365,0.648,2.626c3.446,1.723,6.956,3.802,12.008,1.072
			c-1.908-1.439-3.296-2.365-4.524-3.47c-0.515-0.464-0.69-1.306-1.019-1.976c2.615-2.069,2.55-4.596,0.482-6.73
			c-0.828-0.854-2.838-0.563-4.309-0.793c0.2,2.286,0.381,4.573,0.633,6.853C484.162,335.973,484.638,336.135,484.904,336.32z"/>
		<path fill="#E1EFF5" d="M538.881,191.137c2.227,0.153,3.935,0.27,5.643,0.387c-1.106,1.992-2.05,4.118-3.476,5.846
			c-0.241,0.292-3.123-0.765-3.812-1.829c-2.087-3.223-3.696-6.755-5.491-10.166c0.627-0.43,1.254-0.859,1.881-1.289
			C535.45,186.533,537.274,188.98,538.881,191.137z"/>
		<path fill="#5376BA" d="M424.008,241.289c0.662-0.001,1.325-0.001,1.987-0.002c-0.714,5.445,0.466,9.576,6.954,10.027
			c0.018,0.655,0.035,1.311,0.052,1.966C424.366,253.164,423.824,252.442,424.008,241.289z"/>
		<path fill="#5A98D2" d="M433,253.281c-0.017-0.655-0.034-1.311-0.052-1.966c2.686,1.324,5.373,2.647,8.06,3.971
			C438.339,254.617,435.67,253.949,433,253.281z"/>
		<path fill="#EBECF2" d="M462.12,286.075c6.785,0.552,5.423,6.504,8.597,8.682c0.665-0.531,1.468-1.472,2.485-1.878
			c0.702-0.281,1.699,0.178,2.565,0.306c-0.794,1.849-1.207,4.062-2.509,5.423c-0.932,0.974-4.225,1.472-4.468,1.046
			C466.478,295.594,464.593,291.29,462.12,286.075z"/>
		<path fill="#65B0E1" d="M470.876,239.265c0.085,0.328,0.09,0.656,0.015,0.986c-0.117-0.229-0.262-0.449-0.33-0.691
			C470.543,239.497,470.764,239.366,470.876,239.265z"/>
		<path fill="#65B0E1" d="M462,260.284c-2.343-0.984-4.685-1.967-7.029-2.95C458.545,255.384,461.18,255.672,462,260.284z"/>
		<path fill="#DADCE9" d="M487.333,336.43c0.329,0.67,0.504,1.512,1.019,1.976c1.228,1.105,2.617,2.031,4.524,3.47
			c-5.052,2.73-8.562,0.651-12.008-1.072c-0.523-0.261-0.447-1.721-0.648-2.626c1.452-0.196,2.904-0.392,4.683-0.632
			c0,0.048,0-0.588,0-1.225C485.713,336.357,486.523,336.393,487.333,336.43z"/>
		<path fill="#EBECF2" d="M487.333,336.43c-0.81-0.036-1.619-0.073-2.429-0.109c-0.266-0.185-0.742-0.348-0.766-0.56
			c-0.252-2.28-0.433-4.568-0.633-6.853c1.472,0.23,3.482-0.061,4.309,0.793C489.882,331.833,489.948,334.36,487.333,336.43z"/>
	</g>
</g>
</svg>
